<mxfile host="65bd71144e">
    <diagram id="b0lUlxLJ4gMpwp6lKtfW" name="Page-1">
        <mxGraphModel dx="1399" dy="791" grid="0" gridSize="10" guides="1" tooltips="1" connect="1" arrows="1" fold="1" page="0" pageScale="1" pageWidth="827" pageHeight="1169" background="#000000" math="0" shadow="0">
            <root>
                <mxCell id="0"/>
                <mxCell id="1" parent="0"/>
                <mxCell id="86" style="edgeStyle=orthogonalEdgeStyle;curved=1;html=1;dashed=1;fontColor=#000000;strokeColor=#FFCC99;fillColor=#ffcc99;" parent="1" source="85" target="79" edge="1">
                    <mxGeometry relative="1" as="geometry"/>
                </mxCell>
                <mxCell id="85" value="" style="ellipse;shape=cloud;whiteSpace=wrap;html=1;strokeColor=#36393d;strokeWidth=1;fillColor=#eeeeee;" parent="1" vertex="1">
                    <mxGeometry x="293.23" y="750" width="120" height="80" as="geometry"/>
                </mxCell>
                <mxCell id="89" style="edgeStyle=none;html=1;entryX=0.5;entryY=1;entryDx=0;entryDy=0;dashed=1;fillColor=#1ba1e2;strokeColor=#006EAF;strokeWidth=2;" edge="1" parent="1" source="79" target="18">
                    <mxGeometry relative="1" as="geometry"/>
                </mxCell>
                <mxCell id="79" value="" style="shape=trapezoid;perimeter=trapezoidPerimeter;whiteSpace=wrap;html=1;fixedSize=1;fontColor=#000000;strokeColor=default;strokeWidth=1;fillColor=#FFFFFF;" parent="1" vertex="1">
                    <mxGeometry x="293.23" y="620" width="120" height="60" as="geometry"/>
                </mxCell>
                <mxCell id="2" value="" style="html=1;verticalLabelPosition=bottom;align=center;labelBackgroundColor=#ffffff;verticalAlign=top;strokeWidth=2;shadow=0;dashed=0;shape=mxgraph.ios7.icons.user;fillColor=#cce5ff;strokeColor=#36393d;" parent="1" vertex="1">
                    <mxGeometry x="10" y="464.38" width="40" height="40" as="geometry"/>
                </mxCell>
                <mxCell id="8" value="" style="sketch=0;outlineConnect=0;dashed=0;verticalLabelPosition=bottom;verticalAlign=top;align=center;html=1;fontSize=12;fontStyle=0;aspect=fixed;shape=mxgraph.aws4.illustration_desktop;pointerEvents=1;fillColor=#f5f5f5;fontColor=#333333;strokeColor=#666666;" parent="1" vertex="1">
                    <mxGeometry x="100" y="419.38" width="142.86" height="130" as="geometry"/>
                </mxCell>
                <mxCell id="18" value="Landing" style="rounded=1;whiteSpace=wrap;html=1;fillColor=#F6E9FC;strokeColor=#9673a6;fontColor=#000000;align=center;verticalAlign=top;" parent="1" vertex="1">
                    <mxGeometry x="317.99" y="436.75" width="70" height="90" as="geometry"/>
                </mxCell>
                <mxCell id="19" value="Application&amp;nbsp; Servers" style="text;html=1;align=center;verticalAlign=middle;resizable=0;points=[];autosize=1;strokeColor=none;fillColor=none;fontColor=#FFFFFF;" parent="1" vertex="1">
                    <mxGeometry x="297" y="378" width="120" height="20" as="geometry"/>
                </mxCell>
                <mxCell id="37" value="Desktop /&amp;nbsp; Responsive" style="text;html=1;align=center;verticalAlign=middle;resizable=0;points=[];autosize=1;strokeColor=none;fillColor=none;fontColor=#FFFFFF;" parent="1" vertex="1">
                    <mxGeometry x="102.86000000000001" y="379.38" width="140" height="20" as="geometry"/>
                </mxCell>
                <mxCell id="54" value="" style="shape=image;verticalLabelPosition=bottom;verticalAlign=top;imageAspect=0;aspect=fixed;image=data:image/png,iVBORw0KGgoAAAANSUhEUgAAAlgAAAD5CAQAAABRsIM1AABeVUlEQVR42uxdd3gU1dfOppEEQu+9d5h77uxuGmmEHmCA0CGs9BIgAVJ3596xYhcVC4qiqFhAQboUG4pKB5Gi9N57S0jhexKSySTZMrs7m4TfN+/9xwezM7e+c9o9x81NhQoV//MwaGZWTxtMPiZb6CnhoZBNz5E/yGfGsQl1OI06OypUqChXmFYhdZLwqGTjjdP81NlRoUJFuQJflcw3R1j0a76pOjsqVKgoVyD16R9mCWsf0amzo0KFinIF2pSeNktYF2mEOjsqVKgoR+A0yZ2EDHOEJTw0DuTc1RlSoUJFuUGs+6xIs3T1SHiUMiHWW50hFSpUlBukeZomWCIs/pnUyuoMqVChotyA9yYvWCIs8rKxmjpDKlSoKE+ENc8SYdGv+XrqDKlQoaLcgPiS1RYJ60/SXJ0hFSpUlBvQivSIRcK6QjuoM6RChYpyg+lNhLuWCEt4lBxlUAMbVKhQoSQMHgmd+dHGJo78Nm2E8MAyYZn4VB/7n2msww9ODDZUUFdGhQoVxcB78JPoIeEcXZUayXnarRKuErItExY9QO30E3IeSYguEc7QI4TyVdXVUaFCRaFs5R5Xj3wi3Mijl0x6mjxnaszLTgrDaUwRwlnLdJX7TH6kXeRZjZ9FjwkP8357j2ye1cbgoa6SChUqcgnHPQGRH4VMCcHk0O+IdqxMOSuhIflByLJKWI/oQVJPbm/4pmS+kFOkNwdnBZfT6z2DvTh/VBc6QRfojqNxv4IGvaErYNRUX3W0H/f/hm05j9F+ujqoNQRCN5DMBu4DocBC66gaQytwXmW/4Tkv+7YT58F5QRXUDBAEQw/JuPpCT+iSu879qsR426+Y2NUHDec10iesCmoAHSAAoiS9eDzDkRAIrZnaA/xd2RPOc7B3dBXUGNpBEETiPkV7AVGgh/aojraSvTNsD5Jbku/ypZkiFJMabfCVIQ3VoHOF69bpSngkpNOP+LoyZL0KySHFyDO3ZdOtyZ3Lm1jqF9AYgW5ogADvw69wHG7gLPxIbOlwBW+DL9kXguLYrqhpkL89C8h54gaoRWFjGjAuuN1k8OpaV/KWpkyVkn/DVEZN8v9/E8bfGgkE+aOWbPegOPZtWAWH4BrOlsxGBpzEO2B1wGv6KbreqDmu4dyRQpULeo2bGSrJm9FYf31t1By1QK0w1nVhW8mbUc490B81Y6O0o+Fp+Ar/Af/h25Jx5cBdOI63wVeBz+rGaiMCG8k5MvajZwWmHu6kiw6coHsGPobNsB9flfTi8QxfgIOwGuYHUN0wXVfURFtN2Q+lwSe4Ieqs7a4bH/gCfAYb4BBcwA+L9eIK7IcN8A5O1o7AQUzDwVUNimfv5GvSl4XbZigmhx5Pm2isaePXtUiicNomXeW2a3Qu39D604xV04aTXWaltQf0M75BuSErphLS62fgBbAJHytCUyVbNr6Gd8AiPAu6hlaRm3yV88MTYQleVtDglYhOSmvFnHuXdrqXxDd8A08zrcxQgx7m5//FQuhh6dsfWgW64iT4GvbgokRVst3Ee+ALENhB2qaOHygIgcX5Pf80DGwcNO9ujaALOzIgBc/L/RUshw3wM5hQbduWkr71cRROgc9hBz6PM6yOKwtfhq3s+/rpSMdUVJQo/HWd2afgdViF/8YXcKbVXjzuyXH8J3wCJtxP10AZ0mJ8EdZPYd+F9XgnvmazBzn4Hj4Nv8FH+mdwb6a2orPhbRwhHLdIMhfpS2mMpTFz7klNqSCclEVXue0ynZfawfLTUlpSXjhquS/8LNd8vuyWS8JZeAVvxefxPZxjc/Eetwf4At6FP4RwTpbTk/PUdcG7JEf/qo4E+is7DlwdP42vF7wBrqEkxsyVT9QHH8r/m4swzYK8w+I38S58WcZhetwe4qv4EF6OY5GDd7ZgML6S/6xrKMry33WvhCLZN7Qr8TZ8DF/B93G6ON7PUCObbwnSLcG78BX8UOY6Z+N7+DxsgRcjwaCIUsZ5soz2JfwjPoFv2fgQFG8Z+DL+B38DMchJ+mQ8USC8jbfgs/iu3X24gf+GD9gI5cwAaS3IMqskc4v+wE/h65iRhrxNPcg3wmXZdJXbbpA1psFG/5Kf6LiafCz5Trhq7ddkTUrbMqermMZ4HPs7vmPXwhUu4E4czzbmZCgjnAdMg8uFv4UTiEMKyliMJ+oPpwu/yvBloNnEsLYIi6kPcfgPfNeB2ciCY7AAdenu7wrC4rzZJqgf/gLvxw/Mvd06YXEV2CYwE28vofLIaTn4FrsFxw5p6Kw9MLARTMU/41sO7bWCOT4Mb6JOTuyT5jALdpqfQ5ntPt4Ngq6NMnY1U1O6xAbJZArn6BpCjCGD/ApWM7aOsS9dLBwsafmy2TKFo2QRP2p8Iy5fWuJ8UjuTeLJcOGXraXSdqV2ZkhXWoC7sR3C2mBKYg7PxXTgN22AFLBXbetgPF3FmsW9zNr4IK4OGjZARqYGqwouQIbGW7GKQUiPprkEhsE3St/+6hZq3sVkjrD4+bAQswmeLfHezcRZchYOwQTIXS2EFbIPT+B7OLjIfOfge7MfPDG/EaJQkrAgNUxfGwCp80rIaZ42wRlQLHAmr8aVia5eDs+Am/A3rioxsFRwoMa5cojjNvo+CsMOGZ8YHRcMKuFjC4JDbiwdwBH4pMcPb4YyZnuTgu/A79OnjgJzVxxdHwTf4cgn5Mhtn4WtwpNiOXwob4Fe4jLNK9gGuw7qwPsMUUJCMXmQgPWyTZrKEm8IJuptuymvb6EHhrIV0fXLaA+EiPUR35T9th3BUuFbCzF6ynSVTjGUXRMppwqvjCbCnUKnIVwHOwUo0ScuGNQlvGFE/sl5Bi6gf1qhvZzwaFpcQpTPxWXgeNWJsbmaoh5dKNmwGLAqvqdBoWuMVYp9y4EJkn2EWhHZLhMW496gTaIQT+EH+5szBmfgm7Ie3UP/eOKxxRIPCucidjfCGPdsE9wICv+PL+KFkPnLwXbwG6RhPZQiL0XSr3mUE/ICvFlNQs3E2zsQP8E18A9/AN2EhMisBIQ/UHF6C0xLZKgdn4dv4CCxkR0R3DmskXeXckfVqHdIFTYHVeSYC6bgewD6cEF7dkaJRyBdNgX+LjCAHp+Nr+CAsQDE99BFNwxuYm+GQEDQZVuJzRXqSJ8viORFV7ekJp9H6wgQ4UITys3P7ADvhWTRIi8MaF93xkfUiGkQ07AdREUDhZ3wB3y3S/0x8AaYyCpg1JlU0mYSbMqkmO6/lOExVRYz6dj3tHv/epLLLqsV46Ztiii9I7TBwHv8FAtPepmDfHFLhV3xOPNp5YjK8g9qHe9syi+u1IFFL4DKagyo5PxrkjwjcFunqPKSBxY1knrAYd9QUXi60gOF0fBxWgIGpYfMg+EIkfA278Q3p4YZdqIe2ivwDZYmweniilvC0+P/yiQNfhROwA36EZfAqGoNiUAwaiThU3cxovVAQLJcoQLky4FHYCHHBDW15eZnO8ALsgqtFqOIcawxrZK+7hPFFQ+BYkTHcgN3wXmAvg6wYaqYDPIP/gvNFbG8n8cyQurKdPpqQWmw8PiElHLgEu2AhRPeUQTqclxaDETbhc1KlGi6gSUpQlrEp/dzaxZpy0DLpRmO7MqQrpIePJMcgB99kN+OEHu3lmVY5L10LPAlW4JtFvnrf6kJ72aAs1g+GwW5RysqGA+wIZ+8qMRXRBDgmbuWbeEFQK8uH0RxhMRrUCF6WeIsuwNd4JFNXdg+8IQjPhb1SKQYO4qkBNZ0jLM5THwjf4HtFnB174QucDAMRE1LDFuV0rQBRsFFCV5n4KHyMh+uay7O/MBUgBL8Eu/BdCVFc1L3VrYM9lGXwwTHwt4T27sM/+HnQcnbcbjN4dm+PE9h1IFXnTuNEuTMc4M9OhH8lfbgLW5ERBTB2VOzjKuDOeAqslXoV4QTEKmHL4jH91VboZxm2HLqXDytD2xVqCV9JzOzZcAxeCNEZ7LoeyXljBj+PL0uNkbBS38yWjBVYB9IkVJnF/h4S7oyrmvPA/WCvuBUztWuCsbWDbI6wBleH50TpKhvvhnhowtlFo5x7UHXoC8vxDfFAPYR/YBzyd4awdHq8pojKfhy/jaJwfU5mDJu2F94mtRnBTvYptr49Hi7OI7AGdIeFUGj/yoZb+vnhTeRLjyHh7FaJMvUQ1qKBEVUc8Gb7dOkMAhwX1zob/kYDGRnrZPAICoW/JHR1Ez6HCMaBPvTxhfb4Vcn+zcZ7tIocZeMwekIhVU/5dsv0VNkFMbj3bA4vSbxg6ewfAeMYh643dvNjZ8M2yZG6D3NtR6lo2+FPJZ6iB/iLgPaOUhbnoW8H34g9yII9+sHWJbaShMV5B43A5/P/7Q5sQv2QgzKftjPMg3MSGeAfGIp8HCMszpPV4+8k0tElWA9jQu04ZKg9rJMc0luwBvr2dyhcFzWGZ+FY4bPgPE4LlSnboLrwrvhxzMFXtN/owxwPGmaqoqlwUOzJQ1gKMlLTBdbWLZT0/hq8q3XYz8hpghqxz+OT4vPS4WvU0PlzyXmlxQv3yyVd3TPOm1x21quoarpnC6OKIRO+Cgg3OFzKOqISOwA2SY7FJTDZoizOI0ynXSsaP3Nytz9bw7H3s3VBECkiB07gWbaUhJKExerg53w55C58hUKRj8ObzgM3ghSQWErgVxTCeNhPWJynLgSvEJXBbDikfzpQaw+RohawUKKyn4W3EDgeRoLqoEmwRyKT/4tHsDJUIc6T7QU7xf1xXfthFDI4FcPEVEFPgWh7hSsQb8sKirxgmGTHP4R3oKkzahynCWqAc90z+R8mOK4bb1DAkjW5Cnm3PBIW/Xp2c+Xj++X7o2IKo5UgEz5HbZ1SyDTBfigc1heK6fgfPNiWymLwZgdJrBpZ8J+2pyO9MPgEjZGoCHfwe7ZNycUJy1Cd/SBf3ryn+zyUYZwMCUTV0SQ4Xyg/wufhtewnLNwI3sQ3RPPwNjQ0tJY9oZucN34eXxVlvVsBr3ZpwTgV9QaVQ0fARYnJ+s+BzWz/Kray/mnJODZp9QanQy6ZSjBTHFkOHA/obF09BX/4TvIJ+Q61cFoacu/eXPeGSILpeGlAawWUQg3flm4vd3T1D4kyepYZXQ1rjP8QD3gGfKtnQ52+0om8UARsENWyDFiB29tiZOSL4gq/k7l2o4CAXnb2pJenPgofKKQ99rfe7W1bVooSVm8f7TR8Jm/734OlLKPEdSFUFXg4K47tDsyQEfBRhLCYajALTuUfygzYjPrYp6T28mHH4CPiob6hf7NPE+czTg707zIBzopPzWC/tO1fY9vj1eIvTqFYRpEIcVQb1ksoK5W1bgQIgn9FujobPrCfAsfP4MF2grWik+UYG9tHgbuxM71SY+h1h4glS8gQbpJfySJiTBk6q9ec4DkBs3olDeKTyYdks3BJSHfQpH/bNHNmxTKjq7CaeD6+L14nWa8P7K7IBuruy/aGQsPqDf1czqaFo1sV/KzYl1wlY2VwS7uUUffAjvAlPBS37d/QVc6hLEpYgGFznjqYCZtRAKPQfXyoA6+DaCWEQyjYFpEWIazuEAh/5h/ITNjCdLZPlTO4s3rYJBrbr8N8aKqMSK+rgqZJVKHzaLwtAgIOHxflkE+6KXQZi/FCQwsVb/gpxOqlJDQa8h0qkA5va2sp1Ad3GINPi7LjIqTIxWBTA7rIWiI+s1R1QzhNvzQNm9GQVCS+Ju94D4P7UM0gjcE9zsPkTXxIxel1jD3JO8IpWeGhRb2Dq/j2ZWdu98JTxS9kNvtnQFflknZwFXQT8BmRfvZqe9qWVSJqwtpC7xHcgbThdkQOB/oXIYUrMF7m11lCWDgFJ+NLj13kqJdyM825B3bES8XvbyasDa4nm7Cuo5Hwaj7dZMJfjN1JPXrWCpgrOjXSYTlSMH4G14EXRctYJmxkGBtySLxInJe1/RU0bNSHLwueDCdRT6t/+7RIsafRKMZHsVX2wV+La3wIeirzVNqLXrCDrC7Sjfyk+Ma2DSqcZkodfiRdKZy14zrPJTrWrewQ2YZdn08Q2XBKP8NxU7vZzVmN/bhQYtIviLCZLoxxR11gt8ThfTSsj1wK5Tx1/SWexnvaBZE17ScseD/f+nYf3lJ2rjkPNhr+zj9SOXASRlrfUhLCugWv5qsw2fAPHsDaqaRyGtwFdopeuWP6GIXH1RV+FY/pOZhkbVx9qgTMLVgj9r/RdZTrB+uLx8MNUW5KtLZT4G2RsHYCVtQePF4MhsnQxSlzPZzvRDfJVdfoz2SqsbFddrLa/Bi6RrgqL4CCbkrtWHbylY92oijO32YXhbRW+g0sLrzNB/9CP9v2CjY36cwRSRqRzVq9rGPjpQvF2yURTyu6dpJro5EQ1jX4FZ/M6+12reILo62NhXzpLdf7+IG+gUzCegBbIM87CBfx7FC7vafaGuyLogf2Hn7aoHA+bqYymi6qQhn4W60VEzZTHV4XVf6NXCUFidNdGw6HxGd/YDm2jPOH+eKuXAOK7vpQjA8WPFv/WmR1JZ6ZWI28LotMLvEv8KxDlNieT6SH5VAWWaSsUGMXQlqwX4kb+T/tEOUz23BekFqQDA7S0evIpszDaQLrwjOSENZ7sFiOD4ftCF8X3gmDLShCvjFXQljpcD1PvnsAaeGVFJ8ND6yHXwoUcPgbD7ImPUoIKxvfzJP67uB5QY3svbdn8OjSFY4XBlUwLki5hhrDN+Lsn8eTLY9LQlhZ8Bmn6BxDS9H3lwNrLT+7CGEtUiJiqhAja+I1BU4fWKkMGXLuZKaQbpOutpOpU/wdP6n8QLpRxnWc18qMrjhPdjg+JoZ3foSqu+It+k6wo/A2XWSIHKkntJVucWEYa+49QMZG35ha8By+KFLBUXZCoB1HQUJYOY+fAYcQMC6IM2H8JDH99+BttqYswiqQGjaxWvuvGQdU0r4g+k3vwRTkkmTWMBiO5s9/Fv4aNy0LwupRLeBlca/tlElYn9rOGWbXqaqE3xdn+zdgFLJiTRTu2KCrjaQn75QtjnfndfQbW/HtxFhmhIXr4fcLrEVwFLnoXlBgJfhApJ572hl6OdcmPLWhsFm0imThPexAa5dHOG92FC6Mdb4Ir+EW9hxsCWEV9PQF5KI43u7t2K1iUOtf0MUOwrrAxofYfcANmt6dYHOhfBXQMcwlAX/RTdnV4or9o+1nScYqohKuV5awDB7amaJ97GRsfVmEpUAMVlEpGojoVNgDulIhrAd0Nd/F6HQQhdGD70yXWo9wp8+Ulf1Kg/vgU6LFZyHjorIJoe76SNGIngNLQRYRRFTCw/BByQXdXyAEWZDNulfQRuO/xE3yEL5DbewLiCxBWP9AIOOiOF6DB54jXpV9wKb08JZJWBmwHvT2y1esBx4LV0SvK9VWdtW4YIIYNnkHnrUkr0dV0KaK0uyekQ2V7QWMLDB5s+cMjS2rWPCmSFh7gFW2D2gK5DuaYD8EKERYk6zUcM6iG0w6ZQI5jR6m9vRLK4EOD+jcslIIKwUZRRP1dTTUhZJc3cKoYjgNMgXwnhXZuZK47GxYhtqZi4li3BHAKpESH8KP9itzxQgrG78JtV03H9p2sEsc19eouUzCuo5NPR0Q+YN84DPxcJ7Qh/VyWZ0XaAt7CpRCWIZbWyJXmCjehjynlAQiPnsQHM3LBXaDPTjGiq0OJYu6xUXtwHBFP9YoBs4/7gP8pcz4BnubjNaSvJg6GxVbVaPG1JJ+YdliRt8vk2qEnIZtKaGRP7EL89owFWBs4WVo+dRoqMG+Ianecg2e0dUsOQ5tfXhVvOiRDft1wxzYYkUJ65o21pXFrAw12XdFA/U+XTdLG6AYYe3WhTjytuBGoufsEXwLTVy4p3xhuSjnbgvqNtQCDUBPfED0lL7MKOpzQq1hEiTktQmcr1VSuSRab+fpFP08Me0h/nEf0ARlDPoza5rethjGuV/5JC880B8tRcGT5TMblQFhDfcM6QaHxWP+SU+XhtqDTnzXI/gAyZZ/mIawXpIK5bg2Rl+MSPR+7GRRsX2E77JJhupOE9Z2bYRrqyxCXAHFwvWAGb0rySCsLO0yg0PKHOoON8XgiDjGpRVOILGAiOFk0NjeFqgoL2OEmCEMupVFRUuWhf2FCXZ0wUHlsyBoPoje4n3Ca6bprnijaRi1UCaM7ud7lcEUdKsQGCtaNu6hycilCwYtYZW4PfaNtiMdCtu/0CGPH8HvqIjXBblDDwnVZMEqxqEvWhHCyoSvUUvXzj4KK7jJBunwvCVrTxHCugZJDs69UZRu/4UI144rJEIMR8mAp5GFaC9dVTxXlJzvwmJ929KnrC41YInkMvrL/euWX7oy+pJplnKPkm9HuuQTxHmTdy288w6fbCj9LO6oIkqCfEsC3NTqA12aKgLVgtfEb+/ZLnbo9VGVA3lR4csLB2Qk0fJMc1guoas9KARpnCas2zAP1Xft7Ac0gd3iiD61pDYUIaz/ULCDhPWDGBVkxV6mDPrUk9zm+wosjIvzwH1hn+gpPQevsC1Ke//rvNjhkn11Rp/M1CufdMVpkjvT3yxIO+dJJO+ik8u3oTvNB5KSP5NDS/0Tg6rBu6Ipdr/exdVboysFxhd4b+AKGmCHvUcT0QTekaSsuwDxBXk/OR+ghZsOjgZPjXTwa1OEsK7rhehqrp2Prj6wtFBq1FvIhiohrBz2z+jGjryJaYgLshJk6F+IruLacYEPrCy0i0Ibi/J9U+0ScU2z4TS8qG9Z2kdA1wRWSPO2QhJTvzwSlqky/5alWjjkXd7fdW/mZ1vwFmaSL0xNSnkaglrBz+LW+gJVde3bDBVDDfioqATMtuvI5XoB1xZmfMd7ID9dMB6Fj4vetmvwXJf6juYfKEJYZ1iDq/0gyB1M4uyfCudivWwQVib+fqhjFqwBYlGRM7pxQ10syiNveE6S2dxi0KTBC/eFg4UeYHwNf9styFCqGZaQF0TjYxLP8Dn4QNuB8y5fdMV7kCnCDQvy1WnSxehCUw7fiB60dGORPM9XKdWJCEFwUtxaU5GLN3KMl76/5PLLPPuiiSIq6PrhneL2TofVSMt4oijYIdJYOnyMWjgeOVWEsP6B3q6e/UGabhHi7N8OHznS2wZhPcBvcw65RSBBvIr7t7Yf5+ViEvCAIZJboF2sURsaCwckDpWH+G+gKAD8mFKTtFBNSMCHC3No4Qd4DxA9BPpznuWBrDiNyZdMEi5ZvNX3hrGGK99v9ObnWAymuEvmkmqlOBmRfcSsUdn6bv1c7iORZHNKx+/Ye/hGVQ6MwycklLUUDYFlkixeq4FBTujyEsLKhs0Iu37+2YaFdW9gNvKzQVh3caojhMW5wyei7fA3FODqUfXTBGFJwbaJ1vK0I3c0EPZLct3nwH3YD/OhFzTRVeRKJf0uUxPmYGllxNyCrHtgfvggtqlyKWccpIsKiW341y1JV3lZ1YcOdim5D9Yk6azE1z+kn9MWxtK6CI0MhXXUoBQOKOokqnUZ+ONhdqugnDdOk1QpvpNX/7fgS76XjXFOdihCWCtRK9fPB9SEX8QVeMe8Sl4kvcxTnAMHaFhlvFLMorXGmWLucmWC4E4gBpnAdOvVa5AHGg478K1iFZTvwm/sHDYUtUH19FVG+7rWtsV5a4fiXyXlVwp8t7/AJAiB1qg2UzW8Aleq2csN7gnVCUPG09+tZamim3mXp3nh69Jl1gq40v1kOtEm1i4FZR6IuDh/QOtSIKxWUJDYLBOv7dXUAZmkJXwAt8yUYz8PyYyTonERwvqaaVAKhFUVvi70p5nPYVEkgV8/R97SqxFbEMd2Dz5BzUqBsDpIwlRfQjakQsaLDdJ+BGdLlKrPguOwDt7FqSHD2FDUrpsLjwTnrQ2FxWJyHGkfTsFqmIfS2BEQilrj6q5TFDn3EX6z6pja8gwJIf3pFNMr9C9bRVTJa0nVXb2eSX6meBuXoR/Sfaa3yHQaQyJ4hu+QWG9URZd8YuBjcVsdBArTXN4o/JUvemfCeqatA4vqpdPBTyW29j14z/loYglhZcIHTCmUL0KV4DVxBVZDHRuEVaxUvWyVpyVszJ+xB/ALmFy/zuzTEgnrQ9sXyA1ekR3wbNgkSSckLfx+Ax+A3+Fb3ZvsbODYdoYqrqEsaM1Ohd+LVHsUb3Di6/gY3pFbTxvPhGjUTklV0eCf3JxEkwkkmX+FX0hX0Y10Bz0jL1EfP9H1flVOY+whL588vUT30k10LVlkeo2kkckkxth2gJIODPhGYu689fjmk0vbbdFS4CBh5VJWlxh8sljClZ+QAvKhhLAy4OVSUcn9gBcP9i9QzzWEhTqLxcpy8EN8uxTW+Zak1t+HcjJecO4BlYGFRNgC5yXWJGkJ+wz8AN/C/+KNusXwDMSi0B7NDHUGK3o3I8IPB7HPwLb8bGjmyPMBvo4P4o14ETwPo1BQSONR1ZyTuTgv0yy6hh6kl+0vSU//I9GlsU8JpnvsLlKRQa/So3QD/zSnnDMPdpldltJoDhOWm9tgSaqavCNxF6YqQh9lS1j/QWMXEVYY7JLUhyzlJo+w8mXBitAZTYav4aCkCIk58rqDT+F97AbdfDYB9QhqaVDMU8Vp9FXZADwNlsBheGB1ZPfwSbwLr9W+BuNRD6ZT1yqO2biMQLc6XGhrKx9YGvuUb0XXOFwO7HCKcsUq4NiTSFjDG+GdRQV2mPc/QFinoKmLCKurGFFezgnrMWmxjXShaAYsgWOFuWPNtix8B1+Gf2ELXgRj9a2ivZQiLW3FwOZdu+JZ8ClcsDFzmfg2vggH4UdYgJ5iWoDdpEUG06MOE9b3plalsU9N9cgChwnrEpnoCsLKwhk4vRTbXVjliB+O00RWx8tKbOTLkIC8VMKySVg5OLNUVzkdp8M7yO447C7uqAL4BzfAIfA8/IaPwWW4iR/ghzjTjKSYg7NxBr6DL8GPaHRIU6yIN4/TxHqwFVClsIahfeAV+A1OwWV8F6fjDJxlhsJy8s7PHXwWvmb7BtVGPvKjAckMesVRMjAtnFC9NPbphEppvMOEdZe84gLCgr/hQ5hXiu11PJ5z4ApNaA2YLSmzWhi9cxD1ZbxVwrJBWHfxz3h+qa7zPBTlXFJIg0f/Nqg/mg5z2S9hLWzDJ/E1nGFe7oFM+A2mBbRFimcdYRqjaEiBN+Fj+Bn2wQl8FWdYULNvwXoUj9oNkBmbRJ+xnafdImG9H1sqkeaxfmkpDhNWJv3cFYT1BqrhVu7BucMgsURWrhXhongXLR3WYB3nrhKWVcI6F5hkqOb2RILzHl0rqCUKQn0hCS/Gm/HB/JIcxUnrFqyHydrGnLsr9l+XGgyDQlA0TsKfajfgg/iGWeq8BmtCxmFZuR+E1x0vFs+/wZVKxgTOyzTdiaL2K5UjrH3iMi9Adcr9lvXQd8aF9wmz4Hd4Fv4srCqN39DVf4IJ65DLjO6hYg7Qy7qne9Zye8LBuXO++obQC4ywBP+Fb+D0YsSVA1fw2yzDuPAwcxU4v5j6qBdOw1/i3fgSvlecuOAcvAxtbHsQhRftrLksJaz5I0qlWPyICsbZDtNVtrBUOcJaI07vSmha3rdpQHP8tlgiNRv2o1imISSIFatz6/wmOFPzR0pY2rdKo+5akTisH10W1tARfss/0rfgzfKZjcBBRa0W6sImwgL4GRcPhrgG36CeyMf1u1JfG7rq4/G7sBVfKRofCLfgU12gLcqiycIth1XCD0pHXjZUTDM6TFgP6DvKEZYYhwWboEX53pxsdTxLclX7HIpnKrm5ofrwihhumAN70EDHQ/qkgaPs56GlkMwNVYYPXR84ihgxDut/jLByEenLNGAD8ET4Ai4WkXLuw28ohCmVHKIG34CGOCgoHlZJsms9pqzPcAcbRvex9KyjZECWJDYojfElVudfcZiwbihYEkzyfT8MncrztjR4hfaGPeIXLAO+CMqPbA9sgddJ/n1VQHvO+fQypXU1pwZslLj/q7uGsJh2sDl/hu7LK0f75CmJej9oikbAdkgvEjqzeGCz0uvFAH+2LTsFtksU1Bx8E95AVpMC8r3pPw6HNWzkO5fGyPgmdInDhHXS1FO5AzNbonFD+d2QvTRBHdkNkjJhu1CXAqMq5456w3/iOO7AK1BZAcJajdqUAmHVhaNiz5837/53nrBi6rMFlJ4O35TGuMpIQawQ2B5eh1MSOesW+3TfiqVInBq9H9LCW3BGQlrXIdVaprm4GnSF8FDIklMgvgRh7SVdS2NcpCP91QGqyhGyhUy6c6Jy7rxu0WLi3AwIZTTldStCLVhaaKOAS6ibNF8S8oVnC2+AwR0U55i5tQhhbUVdXD+uwE7ixs7GcayPawjL4A4LC+Ynt/yZ2/8sOA3yhxi8RZS4c+AA0pUybbqHVcX9YLtkv/6t6xnpZbnP02ql9SBvkHX0b+GscFG4LFwT7ljKLloiOfKw0sghwYfQE7LM6xnCXeG6cFm4SM/SA3QTWWgaEldPwR52Dy+MaYL4ss79Y3EL+MEcMUNDDr6OZ0IxQsK18NLCYFI4B9EGb6cI6xE+BP1cPi4NGi72+UbEcIO3awjLzQ0EsdzDP7gPp3H7H4bBO6IPu1Oki3RY6NoaQRZmPBJ2ix+j+/CmVoYPnvMYUWNWJ2MYH0OSyIfCH3S/cNlSmS3RT0inutw5NNXLOMYmVV2nB+lG8gmh/HBjWCIeVdslaSJD2sKv4pH5BFUpjxuQ84T+BdVl8u4NLgxqUvzIce56DFsKL1bj1V2Rk4R1Tjve4PrMnG+J4zoe1ne0l8sIyyA+44zWUN4SACtOWT5Bg2C3KGUdRiFlsGt98Ag4U5i8KVw/3E7zv8EroQOZSVcIZ4RsKzLWUr65q8fC1yDvWlX8LtN1JDURG1z/YQhqJCmDsM+VdY4fL0FoWxgKsXltGFNT3q90LKyV5K/cirqbi2hnfNBw+FcMcLgGc+2PKytahEL3dA8XX3uI8oXNhbkadIx5yUcJwuqCxPwWd/RJI1y8sZA7YvNXORZFoUqlTxe6qlgQk0Jfw8aySHYcVg0+Elf3WlBspEOfP2MdMpb+ZCUW/qSpB+diT2hqO/qvZbqiu+kMY+NSmlRUFd4QrVgXEXatFSvSXzcj71LDVXwV9neTZfxFDeAjUZ3Jhv9grKUDoK2L54k5I7PhhHaGoaIThHUH3kYu9hPqWkChzexjS29TgrAM/rggNXWO9tNgF9fsBR/46vEq46uwsGSxNFwZvyw2l9R+5DxwD/hLdDR8pisRLAsMTsnvQZpr3E3IA3rhm+L6vgMOG/+Jnn5pOeson5joUrdCoqdxiBUJ72dSmgVVGT80A67lE9Z9NN61hVRRXXinQG2DPaNlfHmZapCARcEaX8HP6i1KgZw7DoQ1hWWj2G2h/e0L/ixCWFmwErV37eyj6IJC6fAAPctUcx1hubnBuwVSKuwAF6ck6d8UXxRn8QVUYlxQvzCTvS7aNfIB0wI+z09R8xDWllxJGI4LSvOegtEuWt8GsEES5+iEwYVvQ5daSZLsUqWQVKI/WHz3LySML83CbKGeuu5wQPSovNnLpeI7dISt4gJ+ZjsRB+epjYJfRHXwPiyDzta2N1MB9RG/q7k3Db8KQvYoA8VK1e/T9nBlNkfOB1LEg3uVHRtawaWENbrgXXAbxTEuNdTqBhd8NuBa0GSuxLugDpwVZ3kSdskFmtDKWMDX8qWbbahErWvUF/7Jlzkv6BMNLskuy/hLUpCfgZpOEJaGIItl6u/x440utEqaIoW7FujqH9Kb93IrXeD2ksqE28CFYWjdPXQc3BPJcYJN+tBAG7xEDFfIhu0ogrFBPxFV2EQ4I1qybsPT2hoOE9Yt7bjeLlwOaA1rRDfBYRxlyXenDGFFdxTzlefAl+BCpZBxh/fFcW0P7Dq4xJpBDfjLVris058DDcTjSwX1siGmxFqHwY58Y8hteFfb0BV9iPLUDRNjwrKwU3d1Z3imDqRXLRDHn8RltzJ4T/KVeaM/PU1GktIvVg+1cKEV6zp6ynVvYutKCi5cABslwRkNagYLRLrKgaMwHsmQd4Y2YAuv6jyCG8HTB1RxkLBy4BNo6KrZ4DRoCD4rhmp8aplClCGsHtVhuUjkZ3U9I1wmOzKdYGv+jsqE78yFqUJVWCau0G7WRdWDEYeP5L/lGAwtsRs7w5b8Xj6ElaiDayxp+t5wUVxjJ5MLpFUncy1ck84mz09wyXoaPPnJgvls7lmm1yZVdSt9cB7aIeKXKBO+cpWyEOyu6wl3RSpYDDaSuumrAcFXJT67NLkFrphm8IMk1vlw6Ojevg4R1iN8FXq56i5acF28TFR2r7HTLKuuyhAW8kBxcEcs2fG63kUeUIM3NoiH9A5QbOZzgfzgmcIMVroewS6ZY9QP/2eZsAzV2BVinNQOiHBJMhoPfS84rxRhubmRLvSABRnrRJLWFXM4W2ep6jM9QYa6lQ0C2rGrxAN+Dga5xm4TUhkWFVY51k0JsipMBnhoexRet8EZeMkoO0IuUJhoUM192xY9cpCwHsE85JLb8JwHjMEFdWVy2F8CrGw3ZQiL1eBQOCyO64CODXaJR7h7S/ZrUS4+zg4xt5sYbzRWUkD2bddUHEcxYgl6M4Tl5gZvi3njL7FxrohN4zz0feCKcoSV2oR8bsGOlUU38IqHFvB16SeWCmOQTakdy4iwDD76aYUyFl6nc8nlWG0XOCFao/ZEhI2ySouoHXxXmKoD/mLDtXYcryCfgDR8QVIC7HV5MV9mCOsIRLrCc6prBN+Idp47updG+buasNzcgurBl+LIHoAJuSA2ifPEBtGrm8V+G2w2CbbOk+0tCQX+E7kksRFMwuetElYsPifu+sVaFyimI72ChxcaNZwnrFF+pqctBhjcoq8YFY2jNFYjycJ5i3kiFhn83MoKqDOsFY/POe1Mg+JxHYZq+APRS/UA3gyob+16CFMX3pZU4T3Djo20y3tp0HRtBV9Irp+eg0Q5X9CShIUz4LVwxeP/GX80AY4UxEXBftzXmlSrFGHpvdnRYlzQI/gHucDBwrbDq0VF97R2oqGCefudrjWsEy2nF9BIF3yGK2pT8WXxPqGZa1b6pnibqFmcgbHKX+DpUlGfIjEvOJ04kXMnM62EkF4kvHKUZaxKpgrHrBROfc2t7BBcGdN8F3BuJqgf9EjpN+h74xPiUTkBfa15+7gKEIfFpHz4AUtDatp7+w15oe6wTZLk4x+2l12E9QCuPz5QcBgrPhuAJLH7d9iFPax+3ZUiLE6jbQKfFlIxu8ygcFJspiqY8kki1yu2XG/RZYGqoefgvijfrDQonp47pD5+K5+eM2ErCjcnDcIbYtReFqyDtoqvcx1YIu76naCAcYFOFO5YCeI8SeYYFckna/QnkwVr151vKZjjyhHmhnD4XVTBroHAKGq5YRrC9+IBzYIPrUeQQwT8KfYlHb7FDuW3Qr7wlCTk9D58ZbvUqoSwLsN6/G9BTiVO0W8vqgnPipJODhzDQ63fWVSKsNzcGA/oJylBe1ln4BS87s55anvDzny5KQdOwjjLhuwwb+2AwsQ6+KpuNqfwxXsUCD/law0P4BumtXlbpyQh5BWIV/YSEacJALgsPn+xEk+3TlhCtnCBpBmddqcYffjxgtWkgvQaSXQrS0T6swm40AF7CmaDQl4kgwaawXuFBxTvwT0se94MGmgOS0RjaBbs0HKRDm5l1ABeE+XGHHwVXreVkk9CWBdhHizJ//7ewM9GKRZYGFAZxYletEf4Pn4r3MZMK0dYeXcNXhTn5CFshWilvKBIAx3gW9Fikw7LmTY2pI+3RaU9Bx8EDino7BlSNaDQx3wdC93MGjm6VYUFhel94HBkz0EK9gH88UdiIEk6TAAFzPp0kqUgzsLi9fQd0mSKw6tqcOerEiLcsPGW+/R5t7LFiLrsMlFAzsGHtMN6+Ruc9iNxmugG+mclVHg+IHlEFct/3buRvjBrew4+q43r6fCXl9Gg1vB5oTcKn4bJ+orWpDUpYeEEdky+lykHjqFxSBET42C/sFGSKO9svGu4zRBOJQkr2kvfHf8m2iszYDXCjALGd+QOLeEjMcFPDhyBQdbvpTIatjveKyr+D+FHFIEU8tQhT4jCYmgq/g8smgNQ/8KMCjgH/wFtlApvMHhBfzguzscf3UJHO02GE315QUZWqiy6NzmEdyhGivef3YX8ICsX14fGss75gbXwq8Qzdzhk4iAnzc0Gj6712Zn4mORC8SLcwjJdhVRnZ+PCuJUruhcMTvYAd8d/SooTHGJHB1WUKWFNwy2gwEGfCTvRSOeT7zCVwgbhvyWBqadwjIwvtYKElXsNWh8HJ0SiyIa1KDSwkrMZsvKCfCV3BHRP21ajDZX0aXBF7Mk9WIWilCgagbxQAKyW+EM/sqxu6vy0b0n2Rw7+MbCDEmE9nEfXUPyj6Fa4z87T1XT+qabmlm8UFlPZzpG5pKPRLiXU6Mu3ISnCOZlv2GTqWMaExfkExMJpSSXow8FTnbFlGdz7NAlIgX8lOTW3a6Msp/UKqsD2E20geeTGtnZ6TN4Bo/FJyfHcgAIYD3mExXkFxOBD+b+9DzvRZH1NZw42qo3GwY7CkFa4BS+FVyttwnJzY2rCM5IC7BnwMxujd8ovjFrAm5Ig3wxYNlDWDQHcEb4V1f9H+C6sRd2dpSzkgXTwteSGxB42wNoe7Zr7mc6W0NtiPeMsZXEeej1eJToVHsGeLj2cz63GaUxRVtK8lKxV8zuZw7PxVWzLjJxmRhUSTBPoBuG27OTMh0k/t7LGoHr6F7E0if9pSGUbO5ZLiNGwrfVv4CMSO8W/2hGclUSxulZQmDU0G37TBiqRs9CQm8qkUC28De9YvrtWlLBypRF2NpzPP9rZcBDTbq0MDqkMnCfbFAQ4Ijka2fAtAjkWJKUJy81N1xzeF6PecwnmD5gW5qD8yHlhPXwqqvG54/oLhcuLXeM8g/uwhyS3EjJgE4oJ83fiUHtDBKyR9OaurYAWxhv1g4OSdbmJv2WjGSf6wFRi++C1EiK+DkYlwo+Tq/DEUhinRXvWr2QeGWXsMMLH8vqlNiMDyBt0h53PzqBv87XLmLAMmp4t9PPFcLrc79NF+AB3D6hl7zfHUJWNgiViHqvcdhamWyOg0Nw7jXcLE57BeKVSrOpbwyZJPy5CXFQleYTl5hZYF94HMacRvqxbzPYYaadwz7kH1MUcXoQvSY7mHViOguRZj5QnLM5Tj+DLwpTSuRkL8Fyt3lDV3ufoGuPheL1o+8yjddagk+1VNfjhqfCflLLwfpwMnRypZ8x54VZ4PN4qGVUWfItsxn/rquPZcFxCWRmwC81CjCNxWQbvyLZoFuyUzO11/J5WgVBsTpOC6V6HqtacphvI+2QmGWIKiW9mqDO00iA/Q+24xqZAMojEkXl0pR1ym1TG+s8YzXmUNWW5h7SCV0U70uOj9Qe8BJHy7xgaKgeEa1+F7ZJtnBsm8AJjJdYGu+OJBbmh8uwZbzA1lRpTP6/QIWJ0UC4Z/oej5RIW56lnCmNp8nq2U0dxZ/kHCvlCL/wq7JNIebnf/ZUolJFJyMoTVt64tLC8SNnPG7Bem8Qycj8TnHtQPRgGn8BBiUyeDTvZsSE17FGcGX80Dk4VCda9AKvxDNTSTupsjifAp/iohHiyYLM2ItBDxkgaYKMkBCb3l2dgLZrWv7k9bieDpn8zPE77BT4vmddb8DnWKmHIN1Xm37acxE+GIf6ycIzupr+QTWQtXUM2kZ/oLuGIcNGJZ2aSJaayL77MeEa2CHgBX5RWd8M34F/4FAUzHra/mKHd8CK8H98schgua8eztZE1/1wX2C2x7qxALZCCN90GVAmZDZmSanUrmObyCMvNracntJVcacmVs67AbviQDbJ9tDlfiID34Ai+WaSU+kPt8ghG/v05VxBWbuoT1A4+KEKj6fgS/AlzdZ1tGwG6VoMJsAFO4nuSkT2E31B/vd0GfKay5Fp2gZx1EX4HQd9OjjnC4NUdgMIvcBbfLWKN+h4Fh8iaZU6jrQ4pRfZ8Tm4f2C0wi5FV15DzwTp4gd2BzxeZ0YfsmiiGUcCbZnTnOeGmw9TiqnabzDT6lTllGdwjq7Mj4XeJFv54E12BX+B5FBMSwqFezSLqF7TwBtFtONCGgwE+xnvxdZwhEfFzC0lu0EWH+1nbLoOasoUXOnJgV3j/gQq7TPUNYaGkxOZN/FJkFXmE9TgvF3yET0soOHc7n4PN8Aoah6P6Q792hbMRUb97sygdikQjYD7swFdwepFqxA/hH5wcVtceS5hrCCt3XKgpvATHi/QwG9/HF2ADPIt66rr0bRfeoHBcPZpyKCwYRaGp8AkcxbeLfJKy80rDByOH1PjISmFDYCvcLTJT2fgePgXrIRX11IUNYKJbS+a4Qc8WHAoJQVFoHLwJ29grRYgz9xN7Ht5BHeyJ7AqvhofDz8X2fDa+i0/BKkhD/boGDEBRDaXr3L9DHxZFoj5oKsyHrfgCvl+k/1lwEs8Nq29QQLriNDMY4XS5o6s8ykoaMMHTrezR1wfr2cX4VJFN+fiopsN52A2rYZnY1sEWOACXcVaRBXtMcv/iV3VMX6vbOKQOniu543YOTVa+bEE/D10X+F1SiPUEmowqyiMsN7e+HoHNYRregu8WG2EOzoZrcBg2SWZjOWyBHXC22PZ97He9wq6GPn3t/Ca5irByMdI/pD8sxZeKHPfcceXgDDgEW+AHychWwk44lzeu4iNLh20wg3FCPejnqe8Er+EDRVw++T2BB3AWtsCGIj3ZArvhPE7H2SX6koNvwDowMHantMMaFAIL4KyZPZ+D78Jp+AuWS/qwDH6CI3AKbpuZjxx8nf0VYnsqFG48uxXdZq1yTlk2ej4p0K18ILYOHshuwpdwZokFsd2y82SQZfoBtiKpkD+KkySyuwbPo1quGE2erUSsqpN3IXZo8XKrlgjrsUmX1bNv4wP4frHDLafl4Ex8k/0N4gY6kBPAlYSVOy5tQ0jEvxZTW+W2LHwPH4VPIcz560tMdeiPv8Qn8QOHevJYsrqL9+GXsUNG+1xEVIen8AZ8waE9/3ils/B12I1MvdobFDJI87XpEitXnsu65dDf+AblhLIM7j1bwxz4Af7DN+zYRJn4MhyEpTCZqW/bq6LvCVvFb9pd+BS3ctVoUG14Bgo9dZmwNjCwaHSMNcLK620VbbTufdiOzxWxVNjawrfgKGyG58NZx2JxXEtY+SNvh5+HP/D5YiqR9XGl48uwE38Ig5WTiJk6MAo+hYP4VmFhN5nEeQefgs34Teja36lILs5d34Sdya6AA/iqnX3IwdfhCGyC51AXRrEZMVYlKcLFcktXue0ufc1Yy628gPFFoB/DPg+r8CGbxzQbX8Xb4TOdSTsEtZATYzSyYuAg+AiWPm7se8GRrqwgp20Fz8E3BW+DD4L6jPS1h7ByMbQmROEZ8AH+A18uoTwUbw/wUfgBvxQwFukd38Kggw8e9xh/Eu6yMvNdK0IYngkf4l/wiSIBD+bp4ShshUU4DUfr6yudq5NpyA7WPw+f4D9lzHDu5/ES3gtfaV/WT8KBoVWUqGpt8AlpxQ4CCl/gPbI+1Q/xWbwXlsPz7AiEGQXTEXEephh6uFzTVW67wE/hPN3KDww+oTVRe+gO42AerMDb4JzkOkOuMzvXi7gev6+Ng6EQgpr2qm7wlLsgulqoeUELauja2rGcB1u38G2oub5G0cMmh7ByTaChFVFjCITB2qn4TVgJB8WSnQVxPCdhBywLeFE7EXqjzkG1nEt1xviiho/7i5saXFjViNOEVERNQAt9tZPx27AaDuEbRWkKLsB2WAlvwTToA4Goibaqa+JwDB79qz2e4cA57HxYBX9Lckzku03gb7wNVsA8diYMhgjUomuNEX5KUifniauj5hCOR7HJsBA2wi64WkxNvAf74Sf4Rve6fjoMgAjUGtVSujy7sT353kIedzOBC/QsvSHrHqCMkAV6iR6jF2QGPWTT341BbuUPjDtTE7UEgDDcG0eLrQ9EQSBqC3XLFcs6ohjJIiwpAUIt1AoCIEoyG9G4F3QBDM27VzV4PJnzwHlAbdQaAouNqzeEA0ArphZTauts8NHVQa1AB12K9CQaR4EOALVkaka5+Aoupwn2RfWhHWCIxH2kfYAeoIcOqFmXGgYX1VYyViNUxmWZO/T71GlCHxpJwmiU0CvVQN5zXCqjp8mXqZOE3jSCBNNwoRdJJp/R6zZ/d4++b6znpqJ8E5YKFa4E6Uh/tElWa0lf0mCyxG5n8DLWNLVLnU1vCDl2ms/PpQmpwNedIHFZGCvxdWgX8o1w0/rT6E88VldMJSwV/48xpbKRWPEPptNdRkNCDfOVl6f4pfakP9nhXXxId5ABST7mYvt599lV0/rTX63cNnxI5o3zU1dMJSwV/6/Bt6ZLLdiRbvIfGm0kdebb0SU2E/4VXGVez+ttKKhNyLvCNbNyVhb9mdeqq6USlor/9zD1orvNBI2e5ufJyYPPd6TfycjCkEW38AG2n2aoakqlx0v0JoceM41WV0olLBUq3DivNAP9tyhJ0H/IZLmVrUgI3WUzSv4c6S2zN978GPp7MevVReMczltdKZWwVKjIK1iWNpLuFUknnf5MBvN2BMeSBBvXpnPIm3apqWF0jXBfpKszxnhDZXWVVMJSoaJArvHkI+nyx7IQ/3qazmjXxSNjbbrPqofvBm9XsmOjh7GjSaB5NQvpFjJ8kmpsVwlLhYoiUo3G2Do1nswno1Jr2x8eS16wFgBKviZ25lflNEnVCEfmmWYYO/Ne6uqohKVCRXHFUDPD11TN6NCl7nidcM+yQpg8YpoDgcBGL1PVRF9Oo66MSlgqVCgKY2XhmsWAzyukszpDKmGpUFFuQHzJTxYJax9pqc6QSlgqVJQfwqpAPrJIWKtJQ3WGVMJSoaLcgPcmcy2a3N8x1VRnSCUsFSrKDUxefKJFwnreWEWdIZWwVKgoN5jhkTzAEmGlzZpRJI6K8xlXj+dIPHmJvissEpbQBXQ+IWRsSvCo6k96+iiVsFSoeAIwVDM7wBJhpY4a6imlqyRseouspwfpBSFDyMrNwyA8oMfoDv5bkzCns0pZKmGpUOFy8C2p2cAGeov0kP7d2LrGVOGikC5kFrl/mJlHWzuSh42tpM6lSlgqVLgYpBH92yxhHSHB0r8z6shbwi0L/sQz/HPG+upcqoSlQoWrCasW+cYsCW0k7YtIYn3JD5bS0dCL5CO+lTqXKmGpUOFiJPuYppv1Eb6UXK0IYQ2hOy0WvbhNvuPbqXOpEpYKFS4Gp0nuQD6kP9Nj9LqQJeQIt+hJ+jv5JC28aN0jMoketZg9K53uJAHqXKqEpeKJpYEZtfm+dLrwivAWnUvGmkIdrThdCn11j6/Gs4SjBiFOmEHHkoF84JxaRemK8+JThKtWCk0cT4tSugqlCpWwVJQS0nxNs+gh4XKeEpUhnKFb0iKe5PGMrmZ82VqyP3o8MWa0mlu0HBFWNQw4OK/poK46Hyqsg1TNT6tX0G6R2U/yeFJa8QusE5ZxZoqaXVSFiicTfF16vmi9ZLKM831yx2PsyH9klbBO8ClTG6o5sFSoeCIR36HEkf59iP+TOx4+nHxnrdI0vUEWTG+lEpYKFU8g4jRzupU40jvjmj2p4+HcTb3or9ZKr9KbZPHMNiphqVDxBMKk4aeUONSHTGFPLGFVSIulO20Q1rqETiphqVDxBIK4k9dKFjglo55cwjJOokcsho3mtgf0z4TgkWpggwoVTx6oOy2ZePg2ffZJHc8of+PTlu4RijLW2VnRBjVjgwoVT+ABryScLXGks+kXpV0FmfOJrRvjdBYFznNmC/4DK9V1HrcM4+QxVZx/18jqI9XsWipUOIuYyjM6p/YxVJfzt6mBwg0zMsiPqbKKOoxraIyJbcD5OH34KySBKS2151P1nHtObMWkgfRHm4T1iHw52cn7hJzHjCbGscZx0zsafNQdp0KFowdJM70h+Ui4Ri+R5am9p1Q2WDUuD6rEv2AurwE9ZnzK4Gv9PVNrmsbSv4Sb9LAx1Zm4pkQvUyeep1vpCXqAn5fadXxVg8P2pQlV04zCTasVoh+Pb78xxuDh6Fue8oxrbJpAVtBj9BhZZZpkqjXeQ915KlTYT1fus9qQ9Xk5NnOP5YVU4/S6limLc49nyQ6z14TTyYo0ZJmEDB4JTfn3hTv5f32Tnze7kSOUZdBMqZrShyyjJ/P8etn0PPkpLX5W2wQfR5422TsplK6zRVaPG//KlFaOzXCKf0Iw/xY9TG/l2/sO8/NnaGMrqPcTVaiw8zDNaUOWSV369Hza08aOsWbtUQbv2e3IUksBAPSa6aWEpualEKNPSoDpkyLR5A/41xLq2ksyBs2UmsnDyUp6RfKkh/Q/Mj85fGJl+582uxGfRg/IIyyy3TTEfmWO85hW1ziEfk+vFi3jys+boRumlsFQocIejPA3PVfCInWXrknpwXmVpKs5XfjFwnUratNV45vxrYqrZ5wmoQaJpZtLEN1J41MJfnZSjG/yYLrBjMXpDPkolZtS1T7KmuOTPJKsEe7LIyx6hV84B9tLV7OaGSfR1SV6nEPP8a/NQpyqGKpQIR9J7chGM4czm/5pmp7SeVTlxx4tTjPEL76paRS/Trhr41BfMy0ydXuqRoHHkPMeU90Uwc8TTpj966/5Rvb1NzWSfGOBYK7Tn41TJtex52kmTFbQq/LoSngkZNEDvCmpgXwvn8F7DvBz6V6zuUyz6TGTkKJmMlWhQj5mt+C/Ex6aOU45wmWy0TSPTyDjyXgy0fQC/w09YvYvSwZZ7jItMKXm/W68KcX0Ht1hIfnwfeOrSbXs6a2xFfmIXrb45nS6zzgrta283FxchdQO5H16WjZdPVY+95oS4pvKoSxOM7m6sTv/Hj1pMSQ1g+7jE2bVV6UsFSpkywD8U8IpSxKFcFe4JJwVzgrnhJuyyKqA7O4LV/N+d1a4Kty35IGjf6SF2ON34yqYptH9Vv15GfQoLyT3MFS1Oe5qKb34BfSykGEXYeVRFk9nsbZtWZOaGCeQT+kpqxH0t8m6pH6xfuo+VKFCJuJq8QttRyEp3+hFY3ycHWGfAyokYRn2pmx6ml9sHDWn7TCLYayDvcfUS+b4z+ll28EMZlomPci/HB8wonqMBXvZKM2wimObGKeT34XbBd5Xi729wr84o9kAVcZSoUKm3KKZXJP/2FLFGBe1HHouzTTFLnVwTI20aXSvVXmlQL7LoCfJoqQBca3mVBonLZaqGedl9EusmRTMC/RP4Y5DdPWYZi6T7aa4+Fa8f6LPKI9CQ79BM9N7Zs24TmmTyWrhlg2yKpiJn2f3GKMGkqpQIR/jG9KtpUpYd/g3DdXsJNYKczBZJVsWvEuPko2mxDk9SauCNqfz7GjTLPIFPaaEREmvkb/4l1KfmhWe0r7gDalM8jD+NbKVnpVBrHnUJ9zmX5veRLViqVBhB9LcTQbhQqnRVSb9OS3QAXtbNVMc3Wexto0ZCxE9Sg/SX+iPZD1ZT3+kv9BD9JgYuuq8lHiDXqL/0t30F7qRrCc/0F/on/RfesZaopoSNqzVSdGjVRuWChX2YWoN/jnZauF9ep7uIcv5z/iPyQL+E/5zup4eoVfkGrDp6bR+jl2UTmzDf2gtM6hFQ/lNao/TwP52j96kt+xWMbPoMVPajAaqfKVChd2WrJSO9E+bRyydHqE/Gl8hY0hUUhND9ZH+XIXYKmNrGNuRAaappnl0Iz1n03KTRRY6mteB807qQ/8ofQeBi9p1/uNEvUpXKlQ4gNlVjLwNH9wt/gsjx6O4mubuGhq8EmrxnVNHkRXWVSJ6JbGHE5JgdT6F7v+foKv79FtjH0MFdeepUOEAhnolx9CzlsNByWYyNrWJrSR2hgqmFsRI/7NyI2/v5CaO9zLOfVZ7/jl67omnq2z6R1pMXC1136lQ4aBSyAfRXZZ8bvz78YxRpjSQXDmRoz9b8pOR75Odqq8T652oJUtsZQgt5y2HnjWlTmqmZmtQocJhEB3dbvZ43eRTTH72ZJya4cG3op+YDx4gy4iTXrHR3ilRZN0TTFnZ9BK/YEorg0pXKlQoTlgXedOkmvY/zdiSfGSOVMhqUtHZnhoqpgyiv5ZysKtyMf6XyLqZjEGtwaNChTMqoTGU7itxvK4SMrO+I6nxOM/kDvTzklIW2T6rmvO9TW5gmki3ywzPLF/tLtmSNjRZjW1XocIZjPROHk6LB48+5JektnD8malh5Jfi8U/0wJQWzveW84xvY3pWuKIYjaQLd+gFeoD+k9e20y10b/5/H6Hn6XXlqJHuSouf0UCtcahChXMySw3Ty8UDEujOtN4GJ2rhGPyM44TzxS1iqTFK9Nfgl9aL/i7rvp6tsNJL9CTdQZaTj0xzkmOTY1OGpfRIDkvpmzw6OTZ1Av8cWUi+pwfpSXrDVjYwGe0WWZjYWS0YpkKFc8ffIzG8RKrg2+RZo5NltIw16JpipJJNlhtqKNHnmfVNJnreSfP3ZfonecM4zhjBd+LbptY3+Bv8R/lxXrltTCWDf1w1UzO+HYHUnqYE8gk95OzFHron9akZNdT9pkKFM3SliWvPry2m9jzkV81q5/yzZ4fRYtlG6XXjM0pQFucxozP5zeGcC4/oUfKhMW5W1xmtJlWzpaJxHqlVE9olRqZOK5ZP3k7F0/RxXFODGtuuQoXDx14T6z6lLr+gxE3Ai2SGEkdrvBf5pEQU0kXT0xOrOF/6PaYyWWAlA6nlHAk36M/kDdO4ODSuxmhPzl2eRYlzH+RlaDAnko8nH9K/hQd2XMMuUD7/Nk6I8VX3nAoVDpLVHJ+ERgld+NUlrtPk0IPG7sq8xTi0pKWJXjG+Ea+dU3uql3PPTutP9tkXsincojv5N01DZjab7DXebtP3ME28+xi/ZGwaS5bSY3Za0NLJ8jmotOtjq1DxpNOUR6xvWi2+BQFTD9MU8jk9bubgPeSXyasDLcPW1MnslZ8HdB95xziahJMOfOPE6qN8HIn7ntqe/GVXhPklstI0dk4Lzkmi5HzSdPzTdJ9dmbVum163nbxZhQoV+SpNYk2ipdGm8WlJ5C26wupxu0deVuq9pDq1Qir0Ov2VfsG/lDaLH0O68WiCXSrT9Np0pR1WqyP8GymhSsk4k2sYx5OVwlXZZHmBGNVdqEKFTCRXM82gW+hpWTFFV/hRSr2Xr0Tek3WkH9B/6Y/T2tpFhv5khcy6gg/of7wwp4NyKlluXZzUaPKZzPyiWfQAiVN3oQoVcg93a7pBtixyOr69Uu+N90odJ18KSulrJ2F9S6/JSuayO23WrM6DFbUgce5TayRGmN6iJ2RQlkpYKlTYAxpAT8kmrBOGRkq91+A5Z7B8wuITXEBYD+ju1ITpDWIUN3hz7iN9ZoFpPj1p02eoEpYKFfZA6Cr/ggk9NkQx8/AQ96Qe8gnLPjsP8Sff2xxVOt2TNmt6A1dlRzB4zexsIjazR+QI51TCUqFCPmFFyQ+ypEcH+Sv13kHuyd1cRVhTGpA1NqPZD/MktbUrsyMYPCa1JB/atKXdIs+qKWVUqJCrEgbTC0+ASphoz7Nn6sleG3R1hE+Z02GQi6OfBvilRpFPbSS8uW2aP1m99qxChUz1qS3dLJuwTsW1Vuq9cV4pY+QTVuoAe55tGk0PW33eNf5tJT2DljHKP60/+c1qbZ675JukYE7N4q5ChRyk1uJ5uk+4JCs++zIfo9R7+YrkDVlklUGv0b1xHeU/mfMi86zajrLIJuXirmz0RTO1lmkWPW61HuPfaaNVwlKhQt6Rck9sQHrwU/nnTW/Rr+jP9D8rKsxdMlcxya46/d1qudPddB351PSG6Wk+ju8+oZJ8uprVxnqcOz3Nzyi9qzCcJqkNWSzctFp36PUZ9dXCXipUyD9Wnpx3bOW0pjxLepHx/HN0NT1rRubKIF8Zqijzxvi2ZsMp0um/9Cs+jYwm4XzHxPqjKnLe9l3OGV3TGCdcskIPd8gns9uV5twmVEyLoVuslDnLpFuSokdXVHehChUOyVxzKid1Mk2lf5WgrBy6LamDQqooZ6Ym9C2yIm14Ssupvo4aoQ1Vk/qQH6zZjOhfpomTSzUVMadJac2/SE9avUEwP0GrViNUocJh0kqpNAeRbSWO1hkSq8Tz52jIPDNlwz6c02K2r+Mes4HeyV35T+hVa4Ea5NP4wCmlHEYwuWJqX7rNqtfyoOmF+JYD1fAGFSocxSj3hFCyvVis9gP+s6n1nX92XPsSmUwf8N9ObeqMe9/oYezEv08vWaMr+q9pRmLlUqd/zcQ6xhfoFSs9y6KHTXOMNYarlKVChaMweMzpUcLDdZZMNTqpvBgrkW+LRaJnk42GOk70VDPT3xTAf2AjcV8WWTxTH+tVBjNZJak3+dFqeMMj+p8pcWZLg5oZS4UKR5Fai3+rRIWbn1ODnSmYYKhgHCKcKW4KTxvt+BPHVUxukjyULKOnrQZpZtKLpqSpdcumsvLoGvxi4ZbVWwW36WH+5TkRibVUa5YKFY6phRWSR9HiPrebpvlJjR1/ZpKOrCtRiefwlFYOKVueo/0NVedE8alkrc20yHfJb8k9uDKqTcP5mlLoYRvRbtn0CFlunJHQ2VB1uJ8a/a5Chb3HzD0tgv5T4mCdI/G8g5Ygvgl9r2RYJ9k+064CFJyG8+F8Rlae2TJlcNoz9Ad60Hb+K3qNLJjVucwIy9PYg/xo80p2Nr1BD/JfpiUndZ3cIMaP81GTJ6tQYQcslKo/RqZMcqBWM9+IviKYkYTIOjml6jnPUdUS2xox34PnjNNMs01v8F/SX60as6WEdcE4e2p1rszM2vEN+S+tW7EkhSmOkfX8YtNzxjjTWD7aFGbEcU2HVFJlLhUqHCOsR8Jp03ijnYefr0dfNp88mCwjfhZIqsLoOilafjAfS5L4Z00L+M/Il+R7+if9mx4V7gjpQrrMOjUZdC8/iCtDLxznQV6iF2XenszMG9l1up/uIT+Rb8mXpkX8uySFzOSHmfoktB9eXY2MV6HCHGHpLRDWI+EsnzaxgVzSmuEVr6dfWLrjR741mZWwBlRIieKfI9+RH+kBekq4LdzPbw+FTDur09wnP/AhZTuX/Hiyzc4iYJlCppAhjvoa/ZfuJBv4xaaU+NYD1BAIFSqKIsYzpb+VGO0b5Cu+e2oVW/mcDB6mmryBbLdswSE7Jjcw98spufFLF/PIKdvx4qj5FqwveF3ZzqYxkvzoZFH7bCFbyBQe0sOJQ6eovkQVKorJRf5picJdq0Rw3fRuSqCp3pSK5pLhGTwSKvONk7rx62zEIF2cFWZWJgkjy61eHJZPWJf5V5Kble1sJgeSxUqMJXfWyUK+pro/VaiQWl00qW2pbZngPt1PFqbO5LsTSKpj8B/py3nFVhxb2diYBBsHGFPpNzLKMWSReeb8dySG7raRAE9uO5k6Xamaio7C0IQsUoywNpMG6g5VoUKCVF9TouyioHfoCfor/55xrkkwpRmfM75IPqN76XmZdJNDj6aGmiGsSfScTM/aE0FY/DxlCEu4T4+SZuoOVaGi0OKi4UOspp5TtmXQlXyJTBB0pnWF1B7C+r/2zj0uqjKN458ZQPCKiqaoqa1CVhtmZmtWtmVlaXVCBbkfRRAdbsPMMOfyvs/zZqWf2tpay1yttXuLlZm0djHbNfPjqmWXrcysbLuYuCY4mqIo0H6Y1BSYOTOAM8Q83/OPfj4w58z7nvPjeZ/ze59Hy0vrFtwRTevLWesycafFWPtwGN2jBHGKWf3hpYDJlTuFz+fLjeyowul7Tx8jwdKzg13XU+rO9bYSLHFUxNM9ShAnH64otkAcDKhg1eEOLVM6Y2uy0Nvs0zuaYP0szqe7lCDcZHVjd+LeNny4fDtqcbuWmnWarKDVx5bzvgjWrMSo4I5qYo+2EyysxOF0nxLEL76pKbjDY+vPGvGTOCAOiGpxxC/z5jFxRBxy/+Zhj4n0enxTH/WrQQIL0NVGj3h7SLoP5vPa6NvU4TYYQncqQTT09RvMy5opYNwgVgfwA17G54MCCizky2CdqPBJtI7hTr6KL4Z7G36TP8BX4pceROuQphWdqhsP6fgp2RqatTVsgnPpTiWIBjtDAv6r+b/qfL46Lr33L44pyZTUvXgEL4KNhpJSw1ezqTP6n8whSZFZ5zAJykSzO+tgGTtV0xRuhLfET23yiP+g64WxwR3XwgvhiTYTrOXQj+5UgmiogtWD3d8k4V6NG7TkpsVO5KjSm2CtV8ly8RdLRsmNNutKJmssqritSSRXwSyOU/YD5wi2GCvbJufD/8YSgjuu+jWwqo0Ea7dW6uxOdypBuMu4OK6ENadLCf7IFrGrMptNWstRzj+e+dONuu4tsV3UfIVS3lNP5CvPiKCO8idKhv9aUyG1m5qCq/Fd/C+6fLaweqjnCSv52OCOK0uEDa3MXLnwR/wM34UXS65MDac7lSBOxk3j8D8nE8T4o35v0XmetzhLYY7r8ONm08k1+IY21nNRFznCngDPnZKiGnjBkXC6uElh+f1t1+m5/EF4Gt/BL04ce7EKq/xcKlbjO3B9cEcVHLjdr2uub/ieWIW7Tnzvz6AclvJ5aob9aksvqo5FEKdJhf1GeN3d2nSTnls80HtFhuRovqjZVqHfs6K5XmuTSmZbPEf8WtSLSr6oZGRjcZPMGZFKTz6QD4YR6mjbBFVm+XAfPALl8E/82g/TQx1+o8tSEKMSKYov9ce3j/vxf7AFymAhR5ZfmmS/mifAMD6I9bd2T+lEckUQZzAzvDiOFzFhHeGMMno8JJM+sblaV7hBG+nD73Ytvpwr+u2WfnKY959MD3NE5cbMHpA3yDI0f0ThFU6J348fioOixtgugHv4AnVQ8MZTuwxe9mFfZJ2oEXvhLe60TSi8omD43CF5A3Ni86PzOyVR/SuC8CpZJmbWw2Sf/pZnRouKZpY0ZUk+mTWzTSxM8fOBTDHJpqSoGYOUq1keLMOvPGbRfm1SX+4YF7Sa7maegR8ZWEDqhQvf5UtYSsmlGX2nh2dRFEUQZwc048amniq8JxDnTuumjdeduNnAXnEEdyqp0zoHYzElmZOj2SO426CccxWUadNLL6DGEwRxlgEzLGxaRBmyAnN2ObwojufhOoOcVrV+V+7wYLxdk6IKL4F/GCwI98OT6qRgm1sJIiRgJl7Q5BH8nF0buCuw99YzjCQL1ytJJZ0DPzpp3bU53rsSYiWUO8endKY7iSACQLGp9KYmD+H7xQHcoCuZ8/vpFtzc7NvKUyZWuLcw4A5xKdyWAC96u64GuVKnzCYrKEEETLISmjyGG6dHB1QYzEXn6wru8JYpwlXqjc4At8hy9mOz8ROv2bW1SoalD1kVCCJg6ANxf6M67aulLoG9BjkifwR/yVuuCL/lutwzoDIaVnopPCWqvFzT/zQ+N1Ym2wJBBA7ohW+cGTfAQ4GPGaZ2VSfi5958TrBRnxzI61L7ce42xnrumFhmGzWV3gwSRCBhXbgQFeKge0F2vKFrMZscjOu4vQu86DXG2gvLCgYFqgd0TmdlEm704nCvx+81Z1ZPun8IIqBIpsKBPBPvFs+LV/BZcLLJUpAqfHILfut1h943zGHpH4hm72mdHJfB81435ByB15QJEjVFJYhQxXk9fGRQTvAdfXpB7NmWLCli5iB+B1Z4ryLBlxaPkKjyAkGEKnPi4G3DLorlztvOdtuvtL6lifipUdkb/ie5K80ZQYQs1hgsN9xkvI8/Zb9GPouLVrln6c3wisFmnJ/FPiilGSOIEAa6w0rDFmW1uJs/bbtKPktv5+RoJQNWG15FHX4J+TRjBBHagrXCh8LKdVgBz1nHTY9ObGOTw+0R6ecoGbBOHDQselOL20iwCCLUBeulRiZWT+8Lf4RyPSU7pi19WZmRuUOdyfC6T8X6SLAIggTLhxzWr76sNfqMwnPbypc1K8oxls/3uRRyHX4FVpoxgghhSmJhrV/9pj/k85yj7D1bK1pSuNpfuRlewN3+NMfg98jkwiKI0MV+jYEPq6lkfQdl+gzl4oJz5BZ6s6Tw0v7OMUzD9f7UbRc/i8P8icJhUhjNGkGEJFIkV/BrPxtoHcdKfA8WqlmWoVO6+Oc7l8xSVGoP20iWB8/gTr/bvtbgevUWcroTRIiS0R9Wtqi9/TGxGz9mS9TE9AG+C4hkSupRMFKzwErcLvYbuq6afVep35HRg+aNIEIxvopSb/dae+pnQw/8Fr6C38lusf3OaMOMFKWO4ql8AazBHV7LBhp0TIQVjtG0OYcgQg7ZpI6CZ1rZI/q4OIw7YTOUw1+5jd2qTciJz4nPPjezd3rvrJic4TnxRSP1m1gqADwNr+In+J043oLI6ozN2BzUATR7BBFa0ZUpN1bLFd+2Sq5ONtyqE7VYid/DVtgAZVAGf4eH+d3wuPvfq2AzbsNd4rCoFXXGHRF9kKw1jltm07KQIEIJS7Q6Ecr96Abdbg7cA8+VXmmhZSFBhMxyMEIdB0vEnt+eXLkl6zu+wDpApqruBBESy0Gz7Xx2P37lQzP49nlU41Y1T+5CM0kQIZC9KhzA1N+wXP0iWf9WJspULJkgOrpczeqlpeCm37RcuS0V/HHbaDKREkSHRgnXJsHy32Kyvcnbwu+4plxAM0oQHTi+mhsP93YAuTpR0E+35vSlWSWIDkpODNPwB799VsfdR/1ZFJ9a9xlqW7C3MDG7G3WBJogOiBypS7DBD6f5MXFUuHAPfuI+vhFVwiUOtGH2q15UC5dwib24w32Gz93/O+S7cGElLLOPnU6ZLILocMvBsII4vhT3+BgpHROHcTuUs/tAgdwTh6rfB0/hu7i/TUTrCP4Aq/liNh+sJz5/Lp/HFsIruMtnyarBL3TbnL4UYxFEByMtWk3GLeK4T0JwCLewpdqc0j9kx5z+GbP6aCPVqewufAN3+/hJnsRqDzyvKcp11hGnN+6SO+UPVW7UVXgZd/oqWriqZGwaNa8niI5Fag91Km72QWaO4kewTM0pjEvuLDURAskkRVr6Oiawe/ADUdNCuarCtzRmHzOzlxTZuPKCFCZFpnezj2QOLPcp23YUlpdcnkqCRRAdbUmYP4A/hBUGS8Kj+Kqu2C+xxsgRHj/JnNa56Pe6jlv9TpM3HPthtSJbBk7zIjJSuNrXfgM8iu8bVJOowU+1grw+tCQkiI4nWWY2CdZ7S7pjFWzWkwrO9SxWpxZvEQWDdRk/9FuuDsByZaKlj2xYEz6ni30013GzN8nCSnjMfnkyJd0JoiOiR/Ji3OpBsmqxApYXj1UjfYtXJJMaxTLxY7+iLBc867xK7urbGfLCivoqmbhOuDxEhdXwFruhJILiK4LooOSexxT8qhmRqcYtTBQkzPSrxcPsfozhBz5L1mF4Wb11ql8t76dHOsfzxc2m4A/BOjVnZi+aU4LosMjmuXGM4bYz3O51woWv6emWOOOlYKNPCyu6GP7sqxUVP2A2OcbvK+5hu4Q7cFuj2vPV8IbzNpnkiiA6uGSFF8YzK24SLnfUUi9+wm94mZZojW1JA63Sbto0fNs3wYKHHZe25IqlTkq8NgfW4r4T1eCP4j5Yq0whuSKIEEAyOwbybFiB34taUQubGTivbml1KclcNIQ/4pPB4RCb2/KCMNm91Umw1N0l+ih+Co/yG2b1ppkkiBDB2sdxPWP4JixxZhQNaU0fGrm7Mhu3G0sWbrGPb1Vk2MU2RivEFVCmWWxjrOS8IohQirLSO+cPsk0ojM/q2rpeytMj7VfAC8bdd2DBrEGtumJTcqe8PtYx1svz+iRH0ptBggg50cqMnNrqxu+SafY57EEjwUKXI0mObP250iLSyMZAEETLmRKllxhsqq7DvbbJWWE0VgRBBDtSi9Qycau3fs7ogvdsoykyIggi+IIVoU/FTQaC9VLxRSRYBEG0A/g18KrXPX8uWFoQR4JFEEQ7gF0GTwuXF8HazRdYziPBIgiiHaBfyB/zKlhfc4eV6oISBNEeyB/I/uJdsJwz8qlTM0EQ7YFpXdjdBoI1aVo4jRNBEO0AyQRzxC4vLqwv+FU0SgRBtBNgBn7ksV78QXgdEmiMCIJoJ/BbYL2nDdBYCU/yOBojgiDaCexaeEoc8iBYu/gDbAiNEUEQ7QRrHF/gKe2OX2j5VqpeRRBEeyElWkvG97ASq06Ls+pxP1ZhBbxSekMKdbYhCKK9IIXNjbVNhkWwBnfgvoaK8ejCvfAevKDrJePzqXMgQRDtSrLM2Z14DAyAoThMxInzcTgOg8HQT+mRFh58ufo/nb1tnD2U8rwAAAAASUVORK5CYII=;imageBackground=none;" parent="1" vertex="1">
                    <mxGeometry x="329.13" y="496.75" width="48.19" height="20" as="geometry"/>
                </mxCell>
                <mxCell id="57" value="" style="shape=image;verticalLabelPosition=bottom;verticalAlign=top;imageAspect=0;aspect=fixed;image=data:image/png,iVBORw0KGgoAAAANSUhEUgAAAggAAAE+CAYAAADoN+hOAAAAAXNSR0IArs4c6QAAIABJREFUeF7sfQl8XFX1//e8N5M0bZO2lLbslB0qtM1M2oroH9xQcfdnUcTSLCUtIJssCqIGBQH5QRGkTdNmgcpat58gKm4VRYTmTUqBCoiAbLIVutA2y7x7/p/7ZiZJS5J5M5k3897Muf76a0nuPffc73kz851zz0KQIQgIAoKAIOA5AtXV1bMMw7gBwAl6M6XUdAA7urq63vB8c9lAEMgCAcpijSwRBAQBQUAQyBCBaDTaByC027LnmfkM27Yfe/TRR1/OUKRMFwQ8RUAIgqfwinBBQBAQBBIIRKNRHgaLbiK6TynVEovF7gcw3DyBUhDIKwJCEPIKt2wmCAgCpYrACAQhBclzRPQUM/+PZVk7ShUnObd/EBCC4B9biCaCgCBQxAi4IAip079JRD/p7Ow8v4jhkKMFAAEhCAEwkqgoCAgCwUcgA4LgHJYT43OhUOiRdevWvRp8BOQEQUNACELQLCb6CgKCQCARyJQgpA7JzBsBXBAOh//+8MMPbw3k4UXpQCIgBCGQZhOlBQFBIGgIZEsQkud8G8DPlFJtXV1d/5BAxqBZP5j6CkEIpt1Ea0FAEAgYAqMkCKnTPgXgZcuyPhyw44u6AURACEIAjSYqCwKCQPAQyBFBSB18CzP/PRaLnRQ8JETjoCAgBCEolhI9BQFBINAI5JggpLB4jpm/vX379l899dRT2wINkCjvOwSEIPjOJKKQICAIFCMCHhGEFFQ3EdHfOzs775L4hGJ8egpzJiEIhcFddhUEBIESQ8BjgqDRVMz8IwB/i8ViPy8xeOW4HiAgBMEDUEWkICAICAK7I5AHgpDa8hVmflQpdeb69eufF0sIAtkiIAQhW+RknSAgCAgCGSCQR4KgtdL9HHoAfM+yrKsyUFOmCgL9CAhBkIdBEBAEBIE8IJBngjD4RE8opU5n5n+uX79+cx6OKlsUCQJCEIrEkHIMQUAQ8DcCBSQIKWBWAnjQsqxb/I2UaOcXBIQg+MUSoocgIAgUNQI+IAgOvsy8NBaLfb2owZbD5QQBIQg5gVGECAKCgCAwMgJ+IQg624GIVnV2di4WmwkCIyEgBEGeD0FAEBAE8oCAjwiCPu12Zr48Fotdm4ejyxYBRUAIQkANJ2oLAoJAsBDwGUEAEd3Q2dl5frBQFG3ziYAQhHyiLXsJAoJAySIgBKFkTR/YgwtBCKzpRHFBQBAIEgJCEIJkLdFVIyAEQZ4DQUAQEATygIAQhDyALFvkFAEhCDmFU4QJAoKAIDA0AkIQ5MkIGgJCEIJmMdFXEBAEAomAEIRAmq2klRaCUNLml8MLAoJAvhAQgpAvpGWfXCEgBCFXSIocQUAQEARGQEAIgjweQUNACELQLCb6CgKCQCAREIIQSLOVtNJCEEra/HJ4QUAQyBcCQhDyhbTskysEhCDkCkmRIwgIAoKAXDHIM1BECAhBKCJjylEEAUHAvwiIB8G/thHNhkZACII8GYKAICAI5AEBIQh5AFm2yCkCQhByCqcIEwQEAUFgaASEIMiTETQEhCAEzWKiryAgCAQSASEIgTRbSSstBKGkzS+HFwQEgXwhIAQhX0jLPrlCQAhCrpAUOYKAICAIjICAEAR5PIKGgBCEoFlM9BUEBIFAIiAEIZBmK2mlhSCUtPnl8IKAIJAvBIQg5Atp2SdXCAhByBWSIkcQEAQEAblikGegiBAQglBExpSjCAKCgH8REA+Cf20jmg2NgBAEeTIEAUFAEMgDAkIQ8gCybJFTBIQg5BROESYICAKCwNAICEGQJyNoCAhBCJrFRF9BQBAIJAJCEAJptpJWWghCSZtfDi8ICAL5QkAIQr6Qln1yhYAQhFwhKXIEAUFAEBgBASEI8ngEDQEhCEGzmOgrCAgCgURACEIgzVbSSgtBKGnzy+EFAUEgXwgIQcgX0rJPrhAQgpArJEWOICAICAJyxSDPQBEhIAShiIwpRxEEBAH/IiAeBP/aRjQbGgEhCPJkCAKCgCCQBwSEIOQBZNkipwgIQcgpnCJMEBAEBIGhERCCIE9G0BAQghA0i4m+goAgEEgEhCAE0mwlrbQQhJI2vxxeEBAE8oWAEIR8IS375AoBIQi5QlLkCAKCgCAwAgJCEOTxCBoCQhCCZjHRVxAQBAKJgBCEQJqtpJUWglDS5pfDCwKCQL4QEIKQL6Rln1whIAQhV0iKHEFAEBAE5IpBnoEiQkAIQhEZU44iCAgC/kVAPAj+tY1oNjQCQhDkyRAEBAFBIA8ICEHIA8iyRU4REIKQUzhFmCAgCAgCQyMgBEGejKAhIAQhaBYTfQUBQSCQCAhBCKTZSlppIQglbX45vCAgCOQLASEI+UJa9skVAkIQcoWkyBEEBAFBYAQEhCDI4xE0BIQgBM1ioq8gIAgEEgEhCIE0W0krLQShpM0vhxcEBIF8ISAEIV9Iyz65QkAIQq6QFDmCgCAgCMgVgzwDRYSAEIQiMqYcRRAQBPyLgHgQ/Gsb0WxoBIQgyJMhCAgCgkAeEBCCkAeQZYucIiAEIadwijBBQBAQBIZGQAiCPBlBQ0AIQtAsJvoKAoJAIBEQghBIs5W00kVLEKLR6InM/AUi6mHmW2OxmFXSlpbDCwKCQEEREIJQUPhl8ywQKDqCEIlEvkVE8wFMBbAXAAXgJQBbLMualQVGsqRIEWhsbTwRW/FYy/kt/y3SI8qxfISAEAQfGWOUqlRXV3/GMIzvAghpUUR0amdn5+OjFOu75cVCEGjWrFmHmaZ5OxFF06D8CID3W5ZlJ8mD74wiCnmDQOOKxvDk/csn9uw0XgODmBlgoKe7D33b7b+ENpufn9YzbUtTU5MmlTJKEIH58+ebTzzxhFlRUfEygD2TEGwAUAfgMcuy+rKFRQhCtsj5Y90JJ5wQev31142KioqeoTQiogcAnNXZ2fkEnHeW4I/AE4RIJDKTiPYHcK9bczDz2wCuIqJ2y7LedLtO5gUTgdr22jF7Tqg61FbGbSbxTAZBk4MUQVDM2Lm1B8oGyOBLbWWsbVuy4qFgnla0zgaBQw89tLyysjJiGMYSAKcNJYOZ/wlgwdatWx9/5plnhvyQGGlvIQjZWKbwa2bMmDG+vLz8EMMw2gFUp9OImetCodBTjzzySODfQwJLECKRyFGGYXyYmS8CcEA6ow3z+1uJaF1nZ+ePs1wvy3yOwMX3nb0f7zQWA/QVNnAwFGvnwS4EQf8k3muj+50+7SvU5N82QOf17uSHO85buc7nRxT1RolAJBL5EID/R0SXATDTiHubmW8EcE+mcU1CEEZpqAIsP/roo6eVl5dfDOBLAPbNQAXtQTgLwMOWZcUyWOerqYEkCJFI5HQAtUT0XgDGKBFVzHwbgN/FYjH9t4wiQeCb93z9FqWwN8AfZZvB+mkfhiAoW6F3p414rwLI4Qk2K9pgAtfs/erea+TaoUgeikHH0F6DCRMmnM/M9UR0WIYn1G/6G8rKys586KGHdrpZKwTBDUr+mRONRtuZeRoRfSJLrfR11AZmvryqquo3a9eujWcpp2DLAkUQZsyYUVZRUaGzEfSVwoQco/YWgL9o1mdZlgSt5RjcfIq74GfnnG2Wh+tNhdlKEwJipCMI+roh3qPQ2x0H6wiEBEkAMW0C4Q1F9gmrTl/1Wj7PIXt5h0B1dfWHDcO4GcB+AMZluZP+lvg0gNssy/p+OhlCENIh5I/fR6PRcwE0ADg68U4w6vE6gLcsyzpq1JLyLCAXh/daZWPmzJkVZWVl1zNzo9ebaflEdGQ4HH7B7TeDfOgke6RFgC65+5I9jbD9TVVmf10xYDCgHM+BO4Kgw4q6t/fB7kswBEr6pshhC87+z0Hx0W9PertnzclrdJCrjAAhoIPM3nrrrfJwOPwKgKocq35vKBRadMABB7y5Zs3Qz4YQhBwjnmNxs2bN2jcUCl0JYGGORfeLY+a/EtHHLcvqDkKQvK8Jwpw5c/ZSSn0MwDIAY70y2jByH1NKfc227Sc3bNigGaAMnyLwrV9fXEMm76mYf6M/5LU3IFuCoD0OOhbB8SJompAiCU5sgkMbXqI4rjfHmrfevPDmTT6FRNTaDYHZs2dPNwxjERF9HUCFhwCdB8CyLOtvg/eYPXv2bNM0uzzcN2PRRHRDZ2fn+RkvLLIFNTU1OvBwAjP/OU9He5qZr+vu7r5948aN7+Rpz6y28S1BqKmpOUUp9Rki+nJWJ8vNIpuI7rBt+/aurq7f5EakSMkVAufdcd70MVXmRwzTuNxk7GM77GCUBIGBeHccfT3aQZDwHCS4ASX/djxM+u6hHaw2rli08n9zdR6Rk3sEdAR6RUWFzkw4EcBHc7/DuyUys85wuMAwjD90dnY+FY1G9ZcbHbNwRD72d7tHqROEuXPnHmTb9scB6ED3g9zilsN51xPRS52dnUtzKDOnonxHEKqrq/+faZpnMvOHB+Uh5/TQmQpj5ud1juuWLVsas0lvynQ/mZ8egab7LpkRp/gyJo4CNF5fJ+SKIBAzdmzV8UX6inngqiFFEhyC4PyWYRDdoeL4S8vi5hXptZYZ+USgurr6e0Q0i4g+k899k3v1EpGOl3qBmccA+JSLDIm8qlnKBGHmzJnzysrKfsjMcwFo+xRqOEHyRPRzy7J+WSglhtvXVwQhGo1qF8+MZBVEv2GlPy2eZ+ZVsVjsB35TrpT0+c7vL36GGRUM3ifhMUjEG+SSINhxRveOvmTowaB4hNRVQ/JvkALB3Kriqg3b+MqWC1ukrkaBH8bq6uoDieg6Ivpkgd/8C4zEyNuXKkGIRqOPJb986kq7fhj6s0Wnz15RVVW1fO3atTo+wRej4ARBu9+Y+b1EpF34Zb5AJb0S24jo+M2bN28Uj0J6sEY7o6mpycCM18faE8b9CCYtJIapX1GpQkdeEAQts7cn7qQ9OkGKu8Uj6JRJIxXgTFobA6QVM+0j+rrptZbFLVtGe25ZnxkCxxxzzKRwOHwiEd2Z2crSnF1CBME47rjjxnV3d18B4Gs5SI339IHp7e3do7e3N/7UU09t83QjF8ILRhBmzpw5rqys7H3MfAaAz7vQ1XdTmPnHzHxLV1dXp++UKxKFHHJw7M6TFfhrFKLj9Ae3dhnkgyDEbYW+nXbCRZGKQRgUj5C6anCuIpy4BP1/+t/G60rRl+PofqqtoU1HzMvwEIFoNKqr3On75PtpwCge7lgcokuBIOjU+HHjxn1eKfWdpHc6KMZbbxjGWX19fRvXr1+/uVBKF4QgRCIRXZVKew10vmlBdMgh4M8ycyuAX8RiMV2KVUaOEGj64zcXEWFvEL7ntE1wyiPnjyAoMOwe5QQs7hKo6AQuJh9bSvoXSNdnNHTwYjJ2wdgB8H1G3Lhy6itTN0ihpRw9FIPERKPRsFLqeMMwLtGVEFONc3K/U3FKLHaCEIlETtWkgIguDaIFmfl1HZuglPp+V1dXQb5o5PXDORqN6lSSS4lI55lOC6LRRtBZN4GKWZalPSIyRoHAt++96ANmhXk6GdDBZU5BrEIRBNhwiifp9MdEFeZkNoMmBqlXj+M5cDIbHJKg6y7oXzkkgrmLDPP5ZbU3f2EUkMjS3RCYN29eVV9f32oi0jFLhwpAmSNQrAQhGo3OY+bziEgHuk/JHBnfrVgL4L+WZX0l35rljSDU1NR8lpl1PQPdIS0osQaZ2kOX0vw3EZ3S2dnpq5znTA9SkPkMuvS+C08pHxu6EYxJia/kiVEogkCKEO+zk2mPqboISXKgycKgOgnORcRgkpDyLiSuIHQ0+73Ndc26PruMUSAQiUT+SEQ6ZTCT2vij2LE4lxYjQYhGo98AcCGAyUXgnR784Om3l38DuMmyLN0LJC/DU4Kg4wx0GdNQKPQCEZXn5UQ+2UTHJ4TD4StGqqzmE1ULrkbTfWdXhcsqK+KmenU4ZQpJEHTEQ88OXYI56UVIeQdSHoXBJIEYhvYi6JZQ+rqBdChjovOr9iiwwnrYOGfay9MelGsH94+e7pswceLETzPzDwuUs+5e2YDMLBaCkOy2WGUYhr7izXWFTN9Zk5lXmKb5w3Xr1j3rtXJeEQSjpqZmhlLq60S0oJTvBomogYgeW7dunXQF3O1pvvB3F46rMCliGualBHx8pGiUQhMEVgo9OxLVlfvjETQxcDhAKh5h8FUDOc2hUmWaNUlIZT44VxBxYyFCeHHZwmX5qt7m9XuJZ/Kj0egnmflYIvqWZ5uUoOCgE4QTTjhhzJYtW45Ltuj+Ygma8FPMvCkWi/3Dq7PnnCAce+yxOkVDd0j7GBHN8UrxgMn9F4AfhkKhux9++OGtAdPdE3WvXnH1hO7D3v6+YpxsGpQ2HqXQBEHfcehmTvF4ogbzLiRh9yqLzoRE6mMiLiEV1JjMdkj+3iDjbbbV0jir+1vqWx72BOgAC41EIp8mIl0G9/IAH8O3qgeZICSrIOqURd3Zt9K3IHuv2HMAbgDwS8uyXsj1djklCDU1NW3MPB3AB3OtaBHI04UwLGb+TldX10NFcJ6sj3D5n795A5iOBjnVMl0NPxAE3Z+hZ6eusJgKUByhFLNDAhL/jyjZ/CkR5Zi4akj+nnSlJfA/7bj6Mce5tWVxi96gpMfcuXMn27atG7PpEsm6c2tO36dKGtxBhw8qQYhGo99Lls1+r9jSQWA7Mz/KzKd3dXVtzCUmOXnhzZkz53illL4bjPqtnGguwcqRLJ3T+o5lWfqNr6TGd+6/6BTDNK81DExlIJzJ4f1AEPQdQV/cht2b9CI4VwwDJCF1neD4DhL9GpwrBnaCFXXBpYRHQV8xDMQp9L8Ed8CgbcsWLPNLdbdMzJOzuTo7IR6PP5P8VljIErg5O5NfBQWNINTU1JyUTCmfBKCkYtpcPkNvAXjTsqyc9fwYFUGIRqMHAPgcgB+5PIBMG0BAN3S51rbt69avX6+r7iUi2YpwXPGXb+2/c3v3tWUVYV3/IqvhF4Jgs4LqVbDtZODhYJIwuG/Du1IfU0WUHMrQH7yYSIlMFVnSfMP5r3uo11jyWuVrb645eU1vVoAFaJGuphqPxyeFQiHdAVF7IGXkAYEgEIT58+ebTz/99F7hcPh2Zta1LmSkR0B7IW8sKyv7wUMPPaS/kCZ706ZfuPuMrAhCJBKJEpH+BvyLzLeUFbshcC8zry4vL7/noYce2llM6DT9+aLZRGUHEds/0x+JozmbXwiCgoLqY8T7Bl5zzs1Bqi7CiKmPybLNDglIIJLwMPTfRvSTBShshsE/sJlvaT6tuVjbjdPcuXOn27Z9LjPrYN7xo3lGZG1mCPidIFRXV88wTfO9zKy/gMqzkZl5dWG5PxBRu2VZt2e4tH96Rm/ayUJHOnBI55q+R+4Gs4V9yHU36WZQlmVdn1OpBRDW9LsLp8IwG8nE50EUyYUKfiIIujZCb28cyk7EE6QCFodtDZ0qxdwfjzAQvJisvjSoMuNA5oPGjWHcYRhq3Y9PXebblrDZ2jcajf5AByEys265KyPPCPiVICSLYOkMuI8AOC7PsBTddsysmwv+KxaLdWR6ONcEYebMmVPLysrWMPNRRVKdKlOs8jF/B4A12j1kWZbuHx+48c3VF54wZt/QlQDPJaJQrg7gN4JgK0ZfbzyRrDASSUhdNSQ9BgN1ETSxSPV40F6EVFOoROyCI3OAx+8g4r8phRXLTlv281xhWig5NTU1FyfbuZ9YKB1kXyez5obOzs7z/YRFsjyyzkz4AFGqDJmfNAysLpsA/I6Zr4nFYhvcnsIVQYhGo08nScFEt4JlXtYIaN/1dqVUXVdXl77Cyfr+KGsNslx4+Z8vuR/gY71wB/qNICjdXrrPhm2r/m//u6Y+DqqB0F+TOVksyYk70CTAdIIXU1kRSneD7C+yNBCXoH+ugxoB3qHi+LO51fyfm865ScewBGrMnTv3cNu2VwB4XxFXUw2MTfxEEHQhrKqqqtuI6CQAFYEBMViK6jebd5RSX+jq6vqjG9WHIwg0e/bsCYZhnEtEumyl3P+4QdODOYZhHBKPx7d1dXW94YH4UYtsuu/i/XgMfcUgumbUwkYQ4EeCoKslxnviThnoXa4admsNrY+VaO6UisTQraETxGDwFYOe0U8G+jMgnGoK/UWXUhkQ4R107I7yvmeDEJ8wb968/fr6+g4nIldvSl4+RyJ7AAE/EITq6uoDiUi36G4R2+QVgbdM06zZuXPn5scee+zt4XYekiAk3Tw61iDrqPO8HrW4N1PM/LdkFTndDEpfQxR8nHn3meOnTa36hOpR1xtlxn5eK+RXgqAdAM5VQ4IFuI9HSAUqOnEJqVLMukSzSl4vDFw1OKIHkQyd6eCQBoP+CoWbeqn3zy1faXnTaxtkKl+3YQagY1B0/IT0TcgUQI/nF5IgVFdXTyGi9wNoIyLxTHts62HE628pP1NKLTUMo9OyrHfVYNmFINTU1NQDOJKZLyqMvrLrCAg8w8y6Sc03LMvSaZEFG5f/6RufZcYndRnpwQ2VvFTIrwSBWDdzSnV7TLycdm8NnbpC6G8R7RRL0oGKerYmBKl+DQmC0Z/VkGQGqTTIhOxBZZ31XMA2mO6K96rVy+qW/dZLG2Qg24hEIp8lIt3Z9ENSGyUD5PI4tVAEoaam5qNKqXoi0inyUusijzYfZqsnAdyvm1ztThKcdxvdVx1AA4Arkl2wCq+yaDAkAsz8dyLaUIi20lf88VsHxinemuyk57nXYDAAfiYIylaw4yrZoClJEpL3AoO7Pe76AZ9sDe2QhaT3wZGQKLKUIgmp/g0J5pH4k6ATyUDGFMVn+g8M/vPkp6Y0FLIJlL5LnjBhgiYqh4nXwN9vYvkmCMccc8yksrKynyVrXRzkb3RKTzsieoCZH7Qs69LU6Z23l0gk8iki0tHRGVW3Kz0IfXPiPmZuicViuhZ5XkbjNxon2PvQKwfMnDQ2LxvutomfCQIzO8GKmiikrhpSNQ6cz/VBTZ1SDZwS8/R8s7/iYiIlIrVABz9qPmAk4xL6iyg5LgotUscrpLwLCT7ilG3eQVAX3XjK8uZ826mmpmYFM+ue9RKzlG/ws9gvnwTh8MMP37OysvJ53d03C1VlSf4QiAO4ecyYMd9+8MEHt+lgxOmmaeqGDzIChIAO+DIM40uPPPKITl/xdJzWdNrhqjysU2PKq6aMwbRD8t8bxe8EwSEJ2ovAieZMyU935wN8IFkrcYUwcNWQaOqUKMGsrwN18GIq9VF/4Cd+54Q3DiIDyRaSybiEhFch0RrKcObt2NSnerf2fmj1pe1/8fTBSApP1ke5gojyRljzca5i3yNfBOHoo4/ev7y8XHezTduUrdgxD8r5mPl8IrqZdLESAJcERXHRcxcEvm1Zlr4W8myccuWiaSbhPhA7BY8qKsOYenAlyipMz/YcSnAQCALbgFK7XTUk2ELyGmHwv5N1DgZVURz44E8FLeqrhqSXIBl/kCy7MNAIatBVg/4dx4Edb/Wid4da2Xvo1jPWnLwm0aPau6HjDb4nrZi9A9gryfkgCDNmzCirqKjQ1wqf8uocItcbBJRSszVBKNoeAN7A5iupnhOEU6+sP5sIV4CoKnXyyQeMw6S9xyaD8fKDRyAIgvYi9OnYgIEP+IFMxgGSsEugoTNh+NbQTuqjrqeYuG9IjFQRpf5SzQPNn3q329qD4Ezr6dlavqbJ214OyeZKBQ2azc8TWHy75IMgJFt2/xiA7tsjI1gI3CcEIVgG211bzwnCgqsXLWXm8wZvHCo3sM8RE1A+NmeFEtNaISgEwdEzrq8EBsUj9NdFGEiD7E9GGJyV4PRlSFxRDJCIgfoJTnDioPoISedEsp8DA3HCttd7oOIJgpIPghCJRB4iImm7m/YJ9t+EfBCEaDR6GYDv++/0opEbBIQguEHJv3MKQhA0HJP2qcCe+48fZQsm98AGhSDoE+lYBGIdD7B7lcXkB//ga4fU1UF/C2g9ZyD1UWcrGKTrIyTCGhJZDongRU0WUtcSOkhx5/Y+dL81cKMQZjW1/dJ2TwtsiQfS/TPst5lCEPxmEf/pIwTBfzbJRKOCEQSt5IGzJqGsIj9ehCARBFbsNHJyxqCgxF3qIzhehUE1DZyJiayGlBchcZXATspjKrVRexYS/62pQeraggCbseWVXasvU0/vtNVNqz3tBCkEIZOXq7/mCkHwlz38qI0QBD9axb1OBSUIoXLCQdV7utd2FDODRhBYJxw6X/sHZTWkiigNbg2drG0wcKWQrI+wy1WDjmtI5UomyUJ/SmQi5fGdN3oR79k1nEgIwigeuBJYKgShBIw8yiMKQRglgAVeXlCCoM8+ef9x2GNf70sjBI4g6FgElchASFwFDFwvpGoXvMujMCgeIZH5MNCvIdHcacDjMDgeQQcm7tys05d3HUIQCvzq9Pn2QhB8biAfqCcEwQdGGIUKBScIOlDxgJmTRnEEd0uDSRB0/sFAOmOKJKSIQSrDIUUYUlUUE3EFiUZOuttj4toh0dQz1fQp8XciA2LHm33v8h44c+WKwd3DVaKzhCCUqOEzOLYQhAzA8uHUghMEjUk+iicFkiAwJwsn6WqJyQ/4xKd88sYg1dJ5UJ2EZOpi4mpCex8SJKG/iFKyb0Oi6yOhZ4uNnu1DlzoQguDDV6yPVBKC4CNj+FQVIQg+NYxLtXxBEMZNKsO0gythhvVtuDcjyARBI2K8ywuQvDEYHI+QhG/3OgmJlMmURyHZg0HXR2B2CELfzgT52H0IQfDmWSwWqUIQisWS3p2jWAnC47rpRAo2ItJl/74AYA/voCyIZF8QBH3yPQ8Yh4keFk8KMkFI5iL0l0JOOBEyaA3dH4+QKMWs/6e7QcZ3KOzc8u7Yg/7nXq4YCvKiDMqmQhBGZSndXfcBAH1E1JhspTYqgX5cXGwEYRMzr2bmu7u6uh4aBLiZbD+7P4Ab/GiILHXyDUHQsQh7H16F8BhvSjAHmSAYbDof6k76ohM7MJDZsHs8wuCyzInoBe0xSFRi2Cv0AAAgAElEQVRacgIVHbLAUAro3hyH3Tt8IVTxIGT5qtKoM/+TiK4HMJaZv0RE78temj9XCkHIzi7MvIKI7qqsrPzr2rVr49XV1Q2GYRwI4NvZSfTvqqIhCMy8kZnnjx079kXdhWooyE844YTQ1q1bP0JElwOY61+zuNbMNwRBazxx7zGYcqA3jZyCThAU7P5rgkTJ5BRZSCUnDN/UaaAFtCYWmjCYiO+Mo3vLyG0WhCC4fh3tPvEMAL+3LOvf8+fPN5999tl9AVwF4EuAbr9ZHEMIQsZ23MLMH1ZK/Xv9+vWbB68+9thjK7q7u48josuI6PiMJft0QdAJgr58VZZllSW+arkfkUjkx0R0OgC9NqjDVwRBg3jo3D0HCgDlENWgEwQb8WTXxlT3xiFSH/tLMg+UWh5cHyERqJhIfXzntUS/hZGGEIR0CO3ye822fmFZ1vyRVkWjUQ28pniBJwpCEFw9H/qFqp+NcyzLWu5mRXV19W2GYZwMID9V5NwoleWcoBIE/S75MjP/sLy8vPWhhx7ameX5UVNT83dm1rEJR2Qro4DrPCcIp15dv5QY57mtqWyECYdEc188qSgIApuJcslOCeZULcRkVkOqscJufRt2TX1M/LJ7cy/sXYsmDvkICkFw9crsZeZHTdNsXLdu3Xo3K6qrqz9sGMZ1AA7TVxBu1vhxjhCEtFZ5FcCfNm3a1PD88893p5296wSqqal5kJn3AnBQhmt9Mz2oBOF6Zv59LBb7bS6QjEQiM4noSmY+gYjG50JmnmTkhyAA5+kP6ESZnlRLweFPuNdhVaicXJ5TCIqGIDgQJjMRnN4KQ1w1JEscpOIRBnsR7F6gWwcmuvCXCUFI+wj+Q18lALjasqwdaWcPmlBdXb0PEdUCuJCIvC8EkolyLucKQRgWKP0FVLeoXmNZ1hqXcA45LRqNvp+ZzyeiEwEE6bMl8W4fsFrq3wPwrGVZt4zGaEOtnTNnzv7MPI+ZdWCSDmYMwvCcICy4pn4pg85jTubl65x81uFzwxMFL4onFQtB0PWXdQ+GgdTFxGOWIgEJx8K7W0Onfq/JwUiBiYMfWiEIQ7+EmfltAF8HEIvFYhtG80KPRqOfI6LDmfma0cgpxFohCEOi/jelVAuA33Z1deWk0dm8efOm2bb9AWZeBWBCIWyd7Z5BIQgxAN8pKyv702iuE9yANGfOnIOZeQIz6z39PjwnCKdeW7sUyjgvGU/vfPnVQ3/zHY4o6A/ASXtXOGWYczWKhSA4RIvI6cio+usbJP0yTvXEZNCiJgkpspCsj6DrHfTt0ATNHapCEN6Nk45AV0pdt379+n+5QzH9rBkzZpRVVFToK8pvADg1/Qp/zBCCsKsdlFIfBbCxq6vrFS8sNHfu3MOVUhFmvsML+V7I9DtB2MHMf47FYp/y4vAjyZw3b15VPB7/DoBzfRxs4jlBWHDtoqWK7fOctsOc+KRK9CDS8fTJAj1DeBQq9yx3iif1dywcpQGLiSBokmCaZiKJsb/fwqCmTgmekPAqJCY5ZKF3u0J8mKJIQ8ErBKEfFR1ktkUpdXJXV9cfR/kojri8pqamPumF9P03RSEIjil1DMpD3d3dJ27cuLE3i2cj9d3J9dJoNBpm5mYiWgAg7Hphnicy8w4/E4QNZWVl7/XaY5AO82g0ehmAS3wajOQ5QTj12lSQYtJrkLxCT36cDRAF51tt6uIhcf2w54HjMHGvsf09htJhPdLvi40gaLJFIU2y7ETA4nCpj8l4BLubHYKQyRCC4JCsh5h5rWVZl2aC3WjnRqPR3wE4AMCRo5Xl1foSJwj6y2enYRg3dXZ2/jRTjM9sr91LMc1g4jKQuWNFbasumpTRqK6uXmAYhi6ypGtseFeGNiOtBiYrpfb1K0FgpdQJXV1dGYOeJRYjLotEIpfqIEYvZI9SZh4IQu1SIJHFkPAa6NF/z9BPClJBjLr8b4omVFSGsdehVQiXjz4jrBgJgn5L0NxgoNtj4mlIeQ4GB4X2bVeuYw9Sz1SJE4QXiehXvb2939iwYcP2Ub7OsloejUa1O7mOiL4IQEez+2qUMkEgom90dnb+MBuDLG5vONcpnMWsUxkTr1nwBQrqsRV1HTro1fVI1tloS15Njf6N0vXOaSf+MhQKLfQrQegAcJFlWW+mPUYeJiSNOHxN2zzoMMwW3hOE62qXgvm81LVC0vntxCL0kwUnwyHxVdeJyu+/fiBM2qsiJ8WTipEgOFiFEthpkmDASAYvJlIfU/EIOnOh753MvAfOm1aJllpmZh2Bvqy7u/tvWbqNc/aK1u5kAB8EcI/faq6UKkFg5ntjsdinMzXyGe2LPsDgJcMWzCI8Q8ztvTY1ty5qfcut/Llz505WSl2ryaTbNV7O068f27bPffTRR1/2K0E417KsG70EIVPZyQIpfit8kReCQDDO09H3uhpgwpMw4A1LeRX0b3eNUUgibACHzZmaKdzvml+UBEEfSnsRzIGSyv0kIVGD2eEJPZuVhj/jUaoEQVdK7ezsbMoYMA8XRCKRnxGR7gfjm1GqBMEwjAPWrVv3oltDzL97vjl5e+V3mamRCNPSrNtBwGs9e/Csts+2DVnRd6j10Wj0HAA/cquTR/M2K6U+Fw6HH3/kkUc2Oe8/Pk1z9B1BiEQi1xDRxR4ZJluxeSAIC/uvGAwyoZSdDE4ciigkGgntHsxohBiHREdHEoqVIDiFkHQ3aEN7DxKlkxOdGxNXDTprQWUTOlXCHgQ/EoRoNKq/8Jyd7Qvdi3WlShD6+vrGu7l2OvvGU6v6qsYcA8bfssOfYmqc8aG38fbONSevGfFVXGCCsF0XC4vFYsftfk4hCC4tX11dfY5hGIVmeLtr6zlBWLC0dik7hZISdwr9VwnOV1on2dG5UkjFKGgFEz9NhSokvgkfMGMSxozPPmC3mAmCbr6kvQgGJa4YEuyAwTbQt73/LsflkzowTTwIGUPm2QIhCJ5Bm7HgdATB8RhsrYrC5J8DpPtwjGb0Anw9zLKlzac1vz6coAIRBN3csMswjKbOzs7+7seDdRSC4NL0pU4QEp/5yY9+hyjo6DonA0+3vuuPPRgumHHMuDAOeE/23baLmiAoAoWT1w3JOATdu7FvB0PFs7hbSD7TQhBcvrjzME0IQh5AdrlFOoKwuH3RSQRuzm3BPLqtuW7VV31EEO5n5jtjsVj7SLAJQXD5UJUsQbgh4UFIxBokvAYJskC6JW6/R0H/TPXXRUgSiEFeBO1G33O/8Zg4NbvS9cVOEJwgxbAuomQ6XgTuA3RqYzaxB6lHWgiCyxd3HqYJQcgDyC63SEcQlnTU/whMOiYgp6O5rnXY8rN59CD0MPM5pmn+Yd26dc+mO6AQhHQIJX9fsgThxtql7DRr0n0zE/fiqeuGRBEf7UBIdSY0AaVphEp6FHQwY/I1wUDV5ApMnV4JQ5cRzHAUO0HQiGkShZDOZjBh92Se1rg7pEIQMnzIPJwuBMFDcDMUXaoEgYhu1g0OKysrX1m7dq2rrDwhCC4frtIlCPVLwThvoGriQNOmwUSh/9866E5/C96FKAyk9049oDIrL0IpEATtpTHK9bWCgt2dOYkSgpBAQIIU3b2pSZDi0DgVmQdBE4Hnu7u75z3xxBOuUy/7vZCSxeDuxVS6BEEXSqKEB8G5XRgIQOxv2DTo57sHMybWDJRkrqgqw97TJyBUlllNkFIhCMzaTQOoPnfP5UizxIMwegxzJUE8CLlCcvRySsiD0AXgAcuyEu/fWQzxILgErWQJwo/1FQOft0tjpncVSXK+tw0QiEGEwamZ4JRZNOB8+AHYY9p4Jx4hk1E6BCGRvZC6tskEI/EgiAchk+dFPAhF60F4DsDqeDx+96OPPvpEJs/Eu95DxIPgDr5SJghOqeVB1RETaY3JsYtXQQctJrMb+oMZE16HVCok7ESr6EPnTHEHfGqbZKxDIrsyGS6ZTL106g0xoCs0pGIiVPJnymanSiE7f+s4Ckcb5wM45e1wcjCSsvQ6cn6nQy4YpJLBmc7vyQnE1D/T8/qrRiZlpT7UneuVfn11XQgTNuIgNvv31bUiHB00tdLyUhUo9c90w0a9wSiHeBBGCWAOl4sHIYdgjlJUkXsQrlNK/ayrq+uhUcLkLBcPgksUS5cg6EJJ+oohFWyYSGkcXPdAQ5iIU0x+qCkdjZ/s/Oh84iZAdrzncUP3OUaozMBBkcku0U/IT3yoFz9BcDJCEgxkVEMIwqjgy+liIQg5hXNUwoqUIOwA8KGysrINuWxwKATB5aNWsgRh2cLkFYP+nE/EDST6MDjfeZP/nWIAg1tAJ0lEco7zjdgmQBOE5Dg4Ohlm2F0Ts1IjCM55R+lFEILg8sWdh2lCEPIAssstiogg6DfZ/wJYblnWFS6Pn9E0IQgu4SpVgrCwuXapUuwEuSTc8IkrgpQHIdWfIUEcBlIaU8GMOu5Ap+05H3Y9uwYmjhkXwv7HTHJlgVIjCKmrEqmD4Orx2GWSZDG4w0xiEIbGKSBZDG8w8x/Ly8vrc+kx2B0RIQjuXksoVYKwoHnhUqhEu+f+/o1JouCQgmTMQeJGfjCBGNwVWpMDAuxdvQWhsIEpB4/H+Enlaa0gBCEtRO+aIB6EzDHzaoV4ELxCNnO5AfcgaK/BGmb+VSwWuy3z02e2QgiCS7xKmiAgkcUwcCeug/xS7Yd106aERyFVezmR1pj6edLzsGPotMbKPcsx9aDxMMyRrxpKlSCkKla6fEx3/SZdou2exYPg7mkRD0LgPAiPMfNFRLTBsix9teD5EILgEuJSJQgLV9QuVazOS7ADTRIGiIIORNTdHZ2R6s8wRDAjtpvDBtzpdsZTD65E1ZQxI1pCCILLB3XQNPEgZI6ZVyvEg+AVspnLTe9BaLhep3aT02w9N4OZ1Yr6tmGLv6QrtczMXyKi31mWtSU3GrmTIgTBHU4le8WwcMVCpxeD801Wk4HUa2YXj8Kuefs6nU8PHcyoehjoG7koUnlVCHsfWoXwCMWThCC4fFCFIEglRZePingQhgfq7La6KX1EDzLoQALKXEK6+zSdzrWZWF2xE2pZR11H93ByIpHIUTrYkIj+30B9emwF8JJpmp965JFHdG2DvA8hCC4hL1UPwoKVC5dCs+lkgybHWTA4cm4QURj4cTKDwTbAO3VaY3qQp0wfj4l7VQw7UQhCegx3nyEehMwx82qFeBC8QjZzuek8CIMlLm5ruJaIjwdoTiY7JRvd3kHAL5fXta5xs7a6uvrLhmF8GkA4+T57XywW63Cz1qs5QhBcIluqBGHhyoQHYTApcGIOUjcOKVYwlEdhpwn0uUtjJBMjFk8SguDyQRUPgngQXD4q4kFwB9SSWxuOhsJJYHzNVQto4huh+OXm+vYfutvBv7OEILi0TakSBO1BIOeKITHeRRScHw7u0ZAkD32U8B4MrrqYBuuxE8qw71EThpwlBMHlgyoEQQiCy0elVAkCM18Zi8UucwlT/7TFrfU1RPQhEK4Z+k0KjzLz9X3AL9oa2rZlKt+P84UguLRKyRKE1gVLoRLNmlLNmXbvE9CfxaBLBJNuJADwzhDQ4857kDKBDm84dN7QJZiFILh8UIUg+JIg1NTU3KkDzTK3oncrSpUgAIhbluW48TMdTU1NodcOfKlGgf9IwNhBX5w6eUro+H2sfbqbmppcXKpmunNh5gtBcIl7SRMETnoQknEI6YgC9xB4e2bkIGWGMeND2P/odxdPEoLg8kEVgqC9XD9WSt04ceLE59z2vc8cXXcrotHoWNM0p9m2vRHAyKk67kTmbFYJEwSN4bPM/Km+vr5XH3vssbezAXVJ+6ImAp+yvLb1SB3DnY0Mv68RguDSQqVKEBa2Jkotp/ovJO8Tkv6ERBbQrtcOgHorK3LuyAqPMbHXoZUYM35XGUIQXD6oQhBSCNjMfK5S6tfr169/PnP0Rr9i7ty5B8Xj8QYiagSQWXey0W+fVkKJEwQHHyJaDeA3Bx100N1r1qxJ5mynha5kJghBcGnqUiUIC/QVQzIGQV8lpEoo98PWX3o58ROlPQc69mAUQxdPmnLQeJiDiicJQcgc0FLNYhiMFDP/hoh+bllW60Btz8yxzHRFJBJZSkQ6de1jma7N13whCP1I6yuBmwF0WJYVyxf+QdhHCIJLK5UqQVjYrj0I6rxUsoJzvZBq2qhbH/f/d6KIEm8KuUR0+GlGiDDt4EqM32OgBLMQhMxhFYLQj9lbAJ5QSn0jV21wh7NGNBq9iojex8w6n93XQwjCu8zzJDP/JBaL/SCfZNLPD4kQBJfWKW2CkGjW5PRqTJKDoYgCbw4DfbkpPlY2zsQ+h09AuDxRZEkIgssHddA0IQjvwqwXwMuWZR2cOZojr4hGo3szs/YazAd0gxL/DyEIQ9pIXzP0MfMHY7HYP/xvRW81FILgEt9SJQj1ty5cqnQMgs5Q6A/D4f5/p4iC0tcK+nohg7TGdNDvfXhVvxdBCEI6tN79eyEIw2L2FjMvZOaHu7q63sgc2YEVyQp4hxLRr0YjpxBrhSCkRX2baZo1Y8eOfWHt2rXDVkFMKyXAE4QguDReqRKE2luTlRQd/wFjMFHQwYk6NZHjBGwLgXtz4z1ImWRw2qMQBJcPqngQXAOlYxOUUvdUVVXdmekHwJw5c95j2/ZsIloJYPgSoK61yf9EIQiuMH8TwI26g6JlWU+6WlFEk4QguDRmqRKE+ltrlzI4GYPATsyB82GdJAsaPl0QibeO3G/BJczvmqbLL+syzEIQMkdQPAjuMGPmNgD/iMVi+sM+3TCrq6vfbxjGlQDmpsriplvkx98LQXBvFSJ6AMBjnZ2d5+hYbPcrgz1TCIJL+5UqQaj9SaoXg75WdWhBsnNjgijo/k1qkwnYufUe7O5FEILg8kEVD0LmQCVW6GuHW15//fVvvfTSSzuHExKNRh8GMBXA9Gw38ss6IQhZWeIRAA9ZltVfXTYrKQFZJATBpaFKlyAsWEpM56XCDww2HJKgoKD/bb9DUB55D1KmGVMZxn4zJjr1Fpw4CP13qv6C5isMGAzYSfKi5+lgSv0zZTOYGOz8rbm/XqvJjZaVIDsO7Un+W6+j5D5Kz1TJ1E7n9+ScW/9Mz3Mk6cyNpKxUPQjWezh6JeQabMJGHLrL5cDPjMS/dfCnljdIVuJwqfoSCfnZDPEgZIyaBloR0Sc6Ozt/P3h1NBr9HYAPA/DGVZaxqqNfIAQhawyZiH5h2/aS0cawZK1BnhYKQXAJdKkShPqfJJs16Q9Gpw6C/gDVFw0Euw+wX/f+/bKswsReh1U5RZSEILh8YLWdenqnrW5a/br7FZnPjEaj2bGXzLcqxIoogGMANBWDx2B3AIUgjP6RYuYFRLSxWOsnCEFw+YyULEG4feFSVjrNMXWFkPh2rP+r7+Vwf00ElzBmPU0XT9rzwHEgQ2dKiAfBDZBCENygVLpzhCDkzvZE1KCUejQWi1m5k1p4SUIQXNqgpAkCJ+ogJAokJYiC2mrA3pK/dG+zzMDUg8ajoqpMCILLZ1YIgkugSnSaEIScGl7XT3iUiC4bP3787wvdAyRXJxOC4BLJUiYIqVLLA3fs+moh92mN6UxRXmli2sETEAonrjr6YwgkBmFI6IQgpHuiSvv3QhA8sf8rAF6zLCviifQ8CxWC4BLwUiUIi+6sXaqcK4aBEX/LgNqWP+/B4L33O3oiynQsghCEtE+uEIS0EJX0BCEInpv/4YMPPvi4NWvW6LTIQMbqCEFw+YyULkFIBCk6hZYVQ+0kxDcZnqU1ujHHwTWThSC4AEoIgguQSniKEATvjc/MOkj4qnA43Pbwww9v9X7H3O4gBMElnpFIZDERNbucnq9p37Ys6wovN1t0ly6UhPOc9EBOkAP1jjc1D9yeQwcrVk4ZI1cMaQATguD2iSrNeUIQ8mp3XY3xScuylud111FuJgTBJYDV1dUzDMN4wuX0fE3LC0EA4TynBkAv0PtSYa4WBgNKBmF6ZA8hCGmesp6e8so1Tcve8fJhLPI0Ry+hK7hsIQh5N4G+ZriFmf8Qi8Vuy/vuWWzoR4LwMDM3xmKxDVmcx7MlM2fOHBcOhz19s81Cee8JwprapWB9xQD0vGCC+7LQ0oMl4yeXY8/p45IFhaRQ0lAQ9/RsLV/TtEZ3MPRsCEHwDFrPBQtB8Bzi4TbYxMz39Pb2fvPxxx9/rWBauNjYbwSBmbk9Fos1uNA9r1OSBEH3lS/L68Yjb+Y9Qbiz9r0w1Oq+bXSozlzwy9DFk6YeMh6hskTxJKmkuKtlGIj39mwd5zVBiEQi24hovF+eC9HDPQL5IAgzZ86cGg6H7wTwQfealc7M7u7uycz8zsaNGz0l8tki6jeCsN4wjP9Zt27ds9keyMt1c+bMma2U+hmAnPeTz1JvzwmC1mvR3XXLup81FoP91edeexH22H8siEgIwm4PkPbC3XZJ2yqnCaeHY/r06WMmT548bO8CD7cW0aNDYAeA71uWdfXoxKRfHY1GfwDgAp99uUqveP5mPA7gjL6+vqc3bNjgaeXTTI/kJ4KwnJnXxmKxuzM9RD7nz5kz53illA5WPDKf+w6zV14Iwvy755vl/666FsD5PjhzvwpmmDD5wHGoqCwTgjDIMET4s8nh+o5Lmp/32l7z5883n3vuuduY+Ute7yXyc4pAF4BPWpb135xKHVqYEY1GbwBwdh72CuoWugfI7bZtd3R1df3RL4fwA0F4WmcH7Nix42a/ull2N1ZNTc1x2ovAzLcW2JB5IQj6jJoklD1bdQGYr9F9GPwyxlSFsOeB4xE2DWnWBH5ZMV1i2PzIT77d9lS+bFRdXT3FNM3rmfmr+dpT9hkVAr1E9KndG1KNSmKaxbNnz55omuYpAJZ5uU8RyH4GwN8sy6rzw1kKShCY+VemaX5NKfWqZVk+CX9zbRaqrq4+iojOIqIzXa/K7cS8EQSHJDTNLzPKJk4PkbqMgAW5PUqW0gjY58gJKC/XHROT3RlLsJujUvZ3lIHVd17S8Z9CFGU55phjJpWVlbUC+HyWlpRl+UHgItu2/2/9+vX/ys92A7tob9Ozzz57WNKTUKj3zHwfO5v99LXgv3T78Vgspq9nCjYKQRD03VfcsqwJBTt1jjeORCKNRHQlgD2AvN7T55UgDIat/pr6yl5Fz4EwEVz4FrgHzd6jFAlCHzNvM8Anrb60/eEcP9bZitPu5LeT981jshUi63KKgO4T8Jr+ItPZ2fl/OZWcpbBIJPIhIuoAsF9/g5csZRX5sm5mfj8RbSjEl+h8EoRuANrt+TXLsh4sxLccrx+kmpqa1cx8EAB9BZGPUTCCkDrcV6+rW4leQ5/3qHwceLg99j60EuHxoWTaI+u6Tk5cgrIZTAx2/tZdpnQnSHJqKPT3csDAv/U6cn4HKD1T6Sg/7ZnQfwhKt71W5Mh3JOkW2ElZA70qEutTPzdYezfiINYZF4m9DDYS/9bvjlreIFmJMpHJXhNJXYc49wME/Hb1Ja1XFRL3YfY2qqurP28Yhi7ipb8xet8T3Icg+ESltQAesyzrHJ/os4sa0Wj0HgAHAJjpR/38ohMzX0tEd+a7rXS+CIJOD9RBbr+0LOtJv4DuhR7z5s2risfjOjL4owAO9WKPQTILThC0LguuqK9hk74IwgIw9vH4zEOK18WT9jtmAnR8hP7gLVaCQIwXQXy32aMu62jq0KTbt2POnDlzlFKf0RHaACb7VtHiVEy/z/5eZw8U4ptnJpAmi9DpO/cv+ChDLJMj5Guuzu5rUUrd09XVtTEfm3pOEIhooVLq9Vgs9tt8HMgPe0Sj0bFEVK2U+gERfcBDF5ovCEIK8wVXLfqQYfL7bRuX590OBFRNHYOJe1UUM0G4JQTqmN6z3wNNTU26AUwgRiQS+Rgz72sYho5RkOEtArqWjH6v/d7WrVu7nnnmmR5vt8uZdCMSiWhP5BeIaJfmcDnboXgE6etE7RU63esjeUkQdLTqTZZlPa0du14fxI/ydXR3OBweb9u2V3UdfEUQtA1qm2rH9I6h44nop6TyW0AnXGFiyoHjYJYZxeVBAD9HffTh7rDx1ppvtmzx47PuQidz9uzZ8wzDuJyIPuJivkzJHAHbNE19pbP1kUce2ZT58sKvSBakOzrp/agsvEa+1UDHlTxt2/bC9evXr/NKSy8IwgsArrEsS9JZBqymMx4+bhjGHQB01blc3cn6jiAMflC/+oOGa0FcB1De3MuVk8sxYZ8K5xo/0DEIOlqCeWtvWe/77jp/9T+9egMohNxoNHqzTooBMKUQ+xfZnvqD4h3btk9av37934vpbNFo9BIAXy9A8HegYCSimzdv3nyBF96inBEEZl5nGMamzs7OTwQK3Twqq+/aiOhcItL54mNzsLWvCYI+X2NjY3jHQfavQHw4mDyvQGmGCJP2r0D5+ETxpIAGKb4KxgOGaXy348KWoo3ZiUaj2hWuSUIkB6+FUhSxhZl1Zdcf+a13Ta6MMagQl/YqvCdXcotNDjN/ORaL3ZXrc+WCIDzLzP+nWYxlWf/OtYLFKC8Sieg7tgOIaLSVCX1PEFL2++r/1n4Ufca5TDiJmDyttFQxMYyJ+4xFyKDgEQTFOu95w60Xr8r5i92HryWKRCJHElETgI8DqPKhjn5VSWeIvGxZlt9a0HuC16xZs+aapnk+EelARj/1w/HkvJkK9SVBYOYHmPmbPT09VlCqIGYKvFfzZ8yYUTZ27NhPa8MC+GKW+wSGIOjzfeWKhgONMM+CoqWeRisTMO2wKpTpWISApDlC8f+xQatv+frKn3vdPyHLZ82zZXPmzNlLKaXT3HRe/N6ebVQEgpn55wDu8ntJei+gnjdv3rR4PF4DQJOj2V7sEVSZviMIhmEc3d3d/cpjjz2mi6LIyA4BmjdvXmU8Hl+ko44BjMtQTKAIQupsC5oWTKXysn0VEMvwvK6nGyHCvkdO8D9BYI00eV8AACAASURBVIoz8RVjeowbWr7ZsrUY64O4NZr+AOjt7Z1sGMYTbteUyjxm7tFe2lAodPnDDz+8rZSfk2g0uufOnTvHVlRU6KqhMoDmsrKyrz/00EM5b5qWyRWDzkR4E8CVlmXdKFbJPQKRSOQlIqpIBuW42SCQBKGfKFy76CBiXqlsHJujmIxdMNvnyCqn06NPCyW9zoznOs5f+V43hi6lOclaIjpATTf30bE6nl5J+RxbnY3Qa1lWQeqL+BkbnU4O4MLkHx38XWrPyavM/GAsFsvWA53WvG4JwmYAukTnJXnq/pVW8WKdUF1dXaNTwQBoV9rUNOcMNEFIne2rVzV8LVlYShfVydnQxZP2PrzSKX7tl0qKYH6LgfUw46d2nNXxas4OW4SCampqGpj5kyXa30ETg0eZ+WuxWKyoslhy/ajW1NT8j1LqFCLS7x/hXMv3oTwduPzvysrKz61duzbupX5pCQIzryaiByzLWuWlIiJ7AAEdnzBmzJj5RLQEwPtHwKYoCELqfKde3fAdg3A0KycFbtRDh0JWTRuDcXuU+YMgwHwCzNd19xj33HFhi/bGyXCBQDQa/Q6AwwGc6mJ64Kcw8/M6cNM0zXuDWs+gEEaoqam5mJl1b4dibSu9XRfBIqIbKisr/+E1OdA21Pn5pxmGccsQBv0HEX3ftu11XV1dbxTC4KW+ZzQaPZKZa4ho9RBY6CufyyzL8mMt/qxN99WljXsjHj8fNp0FHn0qaGiMgUn7ViAUMgrci6H3k4SyV9u/1uJZ3EXWoAdg4cyZM6eGw2HtStWZP16XMC8YIsysvwW/EYvF/lEwJQK88YwZM8aPGTPms0Sky3vnqydOPhDbppT6vFLqyUcfffTlfGzoEATdp9swjDWDq5sx86fD4fADDz/8sA6aklFYBHTjGx24dXHyrs3Rhpl/Q0RftCxLd8csqnH2jWeXv9nbU2n22X8BMGO0hxs/uRyVe5YVhCBAqYsVjVndcdYyuU4YpSFPOOGE0KZNmyrD4fCDRFTQ5mCjPMpQy78PYLlc4eYEWWPevHnj+/r62ohItx83ciK1QEIMwziOiJ4qhDepP6gjGo1O2LJlCz/zzDMlHSFboGfA9bYzZ848YsOGDborZkmMxsbGsTsOsp8CYRI44ywPByMjBKdHQ5nu9pifbo42M/8T4Ctbz2i9syQMledDHnvssXv09vZ2AdBt44PcOl7HGXwvFovp9EUZHiAQjUafT2aI7emBeC9E6kKw+gvFSsuydHabrpZZkFFqUZ8FAVk2HR0CtUtrJ3KfWWcr525xutOvOcOh4xDG71nmLPS03TPj18x4edWSlsUZqijTM0RAexS2bt36JSK6AMAxAEIZiijk9LXMvMnLCPRCHs5ve8+ZM+d4pdSlAOb5nFC+TkR/jsfj31y/fr0mNgUdGb/RFlRb2bykEfjqD2s/DtucBUC30854TDl4HHQpZm8IAjYA6p6dm3detfqi1dszVk4WZI1ATU1NNTN/EMB1WQvJ30Ldpven8Xi8JZ93yfk7nn93mjt37mSl1OeYWVfu1MGMfhraa6Cv+n/R2dnpG6+jEAQ/PSKiiysETruq/iOKMBdMV7pakJykuz1O3l83ciKnJbT+o7s6sf5f8t+KAXJ+p1uQMkhpQqEn6T8EBeX8TM9L/FwnSKg/GTbO32fSPk81ndzUm4lOMjd3CMyZM+cjzDyPmXWlPT+O3yulLjIMY6NlWX1+VLAUdKqpqZkL4Ghm9kv78Y1KqXOSz8V//WQDIQh+sobo4hqBxhWN4e53+j6m+mgpmFxHte91+PicEoQe6p5U1lvW27K4JTDBomfeuugoW/H9YKezaP8wgC2s+PzmhrZfuDaEzyZGo9GwbdvTTdNsS5MinFfNDcPYWym1tRiDivMKZI42002gnnzyyapwOHwVERXsOnDnzp26tPg7GzdufCdHR8upGCEIOYVThBUCgVOvrr+PFB0OwiHp9tfFk6YckqhonY0HwYbqI8broTgtvrFh2X1EpF2Dvh9nt9VN6SWeSDB10Z207cYZ9uFkqB3NC2/NW0pVrkGsrq5eZhiGbgJ1UK5lu5CnC9j8l5m/G4vFdI+JQDwnLs5VdFMikchRRLQGwGF5aASl09M3MfO1yQaHvv5iIQSh6B730jyQTo3cvH3HaoCPYdCRw6GgiydV7lWOMePDGRMEZuywoVay6mltqet4LAhIn3nzmePj5T3HmyGcw4wTM9KZ+XEycb5dEVrXcnLLlozW+mTyMcccMykcDi8jIh3EmK92wbomfrtt2zesX7/+Xz6BQtRIg0A0Gv3fZO0Er8qf6+ymW4joLsuy7g+CQYQgBMFKoqMrBPS1w84tfe8D6DK26YThotpD5Qaq9iqHGdY1mN3FIDDwfbB6cdlpzStdKeODSYtWLppmhtSVAH2egD2yVOkVAL+Px+myVaeveilLGYVeRjU1Ne9jZl2JsQ7AGA8V0mRkQ2dn5woP9xDRHiEwa9as94RCIe110uXfp+dwm+sBvGBZ1o9yKNNzUUIQPIdYNsg3ArVLa6fbPcZ+zPTXofbWXoSxe5Rh7KRweoLA+LmKY4W51fzLTefc1JPvs2S735L2hpvhBHI6PT1yMChGxFuW17Z+KAfCCiJCF4ULh8MzlFL3ApiUYyXWKqWuMAyj07KsQHpbcoxHoMXNmTNntm3b7yeim0Z5EP2sXb9z5851fo0zGOl8QhBGaX1Z7l8EGpsax+4ot/8fgN/sriWZhKpp5SirMIfLYugzmG98peyNS9ecvCYwmQln3rLoS0qpFoB0AGLOK8gx4y1ivra5oS2rVFM/PC3HHntsRU9Pz2eIKCfpZMx88datW2985plnAkMg/WCHAOhg1NTUzGDmXwLp45t2Ow8rpU7s6el5YOPGjYF5/3jX+2QAjCQqCgKjQqDu5rr94+8YVzLjfwb3d9CFkyqqwol20Kk0R+BFKN5601duPnpUm+ZxcVNTk/HKga8cTrCvI+CkfGytgDZSvHxFQ1tnPvbzYo9DDz20fMKECTcD+LSLzqm7q/AaM78aj8eP27Bhg9S98MJAPpIZjUYvA3AKAF3ie6Qv1jow9S+xWEzPDfwQD0LgTSgHcIvAqUsXfou6w+8BuP/Fu8cBY2GEdQVm3kSMv7Bh/ODGk2+03Mos9Lwz20+fo1hFQNCu0Ly3uiVGLRFeW1bX+ttCY5Ht/pFI5NNEdBozf4GI0nlddDqazl7p6OzsfJdnKlsdZF0wEKipqWljZh2boAtzDR66Pfe9hmG0r1u3TveQKYohBKEozCiHcIvAJ248u3yPbdsbDYLJIT5y/JTysWMqQuvirF7vNeO/DUq0fl1b3ZQyMi4wQB9j8Gy35991Hr/ITO0g1q2nryJQIv8zw0HAKyAst2He0VLb8u8Ml/ti+nHHHVe5c+fO04hId1McLttD90DR3VPXSD0DX5itIErMnDnzoHA4/KnBmzPz67FY7K6CKOThpkIQPARXRPsXAWamU5efOrE8Xh5qP6c9UO3MG1vrTzRMuhoKx4Cy6z/AwD0M81u96P1XR11H9+Jb62tg0xcJ+EY2ViOinYr5WWZ1Wkt9e2BbWkej0QNs297PNE3tHahKYrGema9i5se7urp0qWQZgkBJICAEoSTMLIcsFgSWtNf/EaDj3RQ7Gu7Me/1n/zC+C9VETbpoS//QsQyb9vjX+L7KMTr7Y2aWmOnOczua61pTH65ZiinsMt0IKqXBlClTeM2aNRorKXZUWLPI7nlGQAhCngGX7QSBTBE4o7X+CEX0BSL8INO1znyiOJhfYtAFK+pW6TLKaT/oFrfXnw3Q1yhRXS6b9wlNFG4B7O8/+Z/nX1rbtFZXFpQhCAgCAUIgmxd+gI4nqgoCwUWg8e7GCeY79udA+D4D+2d5krfAWM3MP8k04+CsVQ0H2iYuAaCLTh2R1f6ETmK+7Z//efbHQhKyQlAWCQIFQ0AIQsGgl40FgeERWNJR/z/MNJ90ambWcQZ8Dtj474r6VT8dDdant9UdbxIdC5AO0MtqELiVyfhnc+2qILRkzuqMskgQKDYEhCAUm0XlPIFGYNHKRfuFQvwzMA4EYVo2h2Hgt4bB10177oA/NTXtGmeQjTy9Zv7d88umbJ84S5FaNorqjNsAWAT6zvK6VUNWucxWP1knCAgCuUdACELuMRWJgkA2CNCStvprQXRBNouTa/rAWNFc33r2KGSkXbq4veFMAn6cZWxCSn5Dc21rOyh9PERahWSCICAIeIKAEARPYBWhgoA7BBpWNewRCuFoUrgBhGp3q3adxcDTRNjcXNs6L5v12a5Z0t5wGwM1BByejQwGtpOBDxm2+u+y+vYXs5EhawQBQcA7BIQgeIetSBYERkRgSXtDPQjHgrEoG6gY2KyrP0LhsuZFrY9nI2O0a07vOP09Jvg7YNaFY8ZmJY/5DwxjBfcZ97UsbtmRlQxZJAgIAjlHQAhCziEVgYLAyAgsbq2fZRjGEgbr1sPlWeKle0acbxjqwWV1Ha9mKSMny7QXJGziRBC+BsZxWQklvAnGH8KszrmpPliFq7I6rywSBAKAgBCEABhJVCwOBHQhotcOfOEcBp0L4ICsuy0amGcYeGvZgtZn/ITMop8s2s/otacaZIyml4UuZ/xAc11ro5/OJroIAqWIgBCEUrS6nDmvCDSuaAxTWe90gvl01hs7xY7wQ9VrXOl3N/wJTSeEjtj/4B8Q0fnZpmgC6CPg1GnT9/9F0webpMhS1g+OLBQEskdACEL22MlKQWBEBJrunl/25vZJR/Qh3kGgyCjg+iMzdayoX/WTUcjI+9LFbYs+axh8LjO/F6CKbBRg4OfM6of7vHDgulylbGajh6wRBEoRASEIpWh1ObPnCDR2LDzEROhUALXMOCirDQm6HsJLzXWt52W13ieLFnc0XGIoPoyJdMxFNmMHM75rQv19WX3737MRIGsEAUEgcwSEIGSOmawQBEZE4IyOhtXMtD/AuqlSxoOApxVjpT2GVq/6yqrXMhbgwwVn3jx/vF1RtYSAxSAcmpWKhMfBeIDKyi5bfuryt7OSIYsEAUHANQJCEFxDJRMFgZEROKOtbiGTcT6AWaPA6h99Nr68tWrrf9ecvKZ3FHJ8t1RXY5y6tWrvuIkbCPhsNoWWiCjO4OdtpRatrG//i+8OKQoJAkWEgBCEIjKmHKUACDDorFvP2sO2u5ucNL8sBgO9ROhVPeZ+LYtbtmQhIpBLlnQ0bINCGJR1qufvjR3lX5j6xsbuphx2izz/+vkVPeVTTDW2R9eWOHAwuAS8ARt1Y6qq/jRh44QeiYsI5KMnSrtEQAiCS6BkmiCwOwJLbmmYyzYdQMRrskKHEYeBJ4nommnP7Xd7qX3Y6LTP/x740scB/mGyrXRZNjgS49s21H0t9e2xbNYPXnNGW/3BbNBdut8EEf68uzxmNkC0L5h7Abr6yf/8+w7pUjla1GW9XxEQguBXy4hevkWgvrV+nzAZHyNSVwM0NUtFe4hwjc32T1vqOh7LUkZRLNOFo2DSZ8E4n4CJ2R2KnwfTddvKum+97au3bc1GxuL22sMIRjODthqEZ5bXtl60u5z5d88399hRdRwxvg/G+wi4fHl96xXZ7CdrBAG/IyAEwe8WEv18hcCSWxqqWeFaAmoATMhOOfoBI26tqOv4eXbri3PV4vZFJxmEaczcls0JGdxLjPuJ6Nblda0ZeXUab2/c0+ixfwngRRh9FzYvvPXlkXQ4c+Wio5Spvg2ikxl004q6VTr2RIYgUFQICEEoKnPKYbxE4IyORVFmvhfAXtntw39RUGePGzfpmaUnL92ZnYziXqWvHV7d78UaGPwtEH0my9O+zbC/tKKu4/du1y9pb/gPiJ4OK/srqVLPS9ob/j3E+hf2+s+/P6pjHs5Y9pVJXDHmeYBeU73me1oWt/S53U/mCQJBQEAIQhCsJDoWHIHGjsZDDLazK21M9DYU2prrV11Y8IMESIHF7fU6NmFhttc4zOo9K+rbN6Y78oW3Lhj3jl22lZh+srx+1cLU/CXtDczANoBfBmgsAeMATCbgruV1rV/un9fRoMC4o7muVde9kCEIFA0CQhCKxpRyEK8QOLP99NmK1e9B2DOjPQjPEOMZu9f8cillJ2SEkYvJZ3Q0/I4VpmTTDtsw+APLFrb9baRtFrc3/JqA9zTXtU4fPE8TBABrmutaTx5MGnYnCIvb6v9EhrF5vNGz4H9PW73dxZFkiiAQCASEIATCTKJkIRFY3N7wCwI+l4EOumXxaoDubK5btTaDdTJ1GAQaV9QeaZaHLmHwSeCMiNoLzXWtu6Qq7r7FkvaG1wHsSEcQFrc3nEnAzbsThNNvOf1wU6n7FeGsltrWX4sRBYFiQUAIQrFYUs7hCQKLb1n0RVJ8I4C9XW7wIoOW9Cn117aGtm0u18g0Fwicdctpk5UdqmaiVbvXJxhh+TZmtXhFffsdw80ZmSDQyyA8otcS84kMbDJgfHFZ3cp1KXlJgvAkGBc017cudXEUmSIIBAIBIQiBMJMoWSgEFrc1XEaE77vZnxi1RPbvltV1vOpmvszJDoEz22v3skPGNIrT+rQSCAzGz5vrWr+YHUHYbRXjmb1e2P+IwTUrkgThKQZfsKKu7fq0OskEQSAgCAhBCIihRM3CIJCWIDAUg3+yor6tP7itMJqW3q5n33h2eV/l9ovB9K0RqzESftVc26pLOw853F4xLGlveF57Lt4Vg9BaP4sM/NJWOHNlQ9tvSs8ScuJiRUAIQrFaVs6VEwTSEgTglea61n1zspkIyQqBtDEi6QmCvn443rRx7M2LWv+TUmL3IMUzf1I7R/WZjwyRxfBTMHokiyEr88kiHyMgBMHHxhHVCo+AEITC2yCdBqMlCCc0nRA64sBDthuEGwdXT3STxaDjImwV1h0325rrWhvT6Sq/FwSChIAQhCBZS3TNOwJCEAYg1x+G6AuP7zPtKsM0Gbb9Tnhb31s3nZNdaeNcGXO0BEHrsbit4UIiXADic5tr2+7WPxuOIAD4v+1m76mrT1u9fUlb/X0MOgZQH3NTcyFXZxY5gkA+EBCCkA+UZY/AIlCKBGFxR8OHiXHb7kYjwGDAQOKPHmrQn8HTmZnu76H44o66jm6vjZ8LgrCkvXY6YD6p0x0J9meX13X8ddHKRdOMCUZ3y8kDHTb1z8aH4j1La9u3nNmx6KcK/Hk2+qa3LFz9gtfnFPmCQL4REIKQb8Rlv0Ah4AeCoKP2FUz9rfYDQ4HHrL7SXNd+J+mI/QxHfWt95RjiiTYQITJ0LwIPBm8wmD+lQuU9yxcsf4OIMtZzJKVyQRC0/DPbGz6ugNt1jw0Fe3aZMja9VrnttTUnr7FT+2svSjwe2o+ILodBx0JRQ3P9Sl1+W4YgUHQICEEoOpPKgXKJgB8IQiqNbqRzVYzbOnbpyWtc93fQ5YW39oWrDaJFIF3OOC/jKQK+R6z+uqy+/cVc7ZgrgqD1WdJ2+sfIUF9lxsnMeIehLiUy30jpSuDzGJhHoEdVb7yhZXFpd+LMlQ1Fjj8REILgT7uIVj5BoBgJQuPqxr2NPvvbIP4EQLuUF84L7Ixfgbizua7NVX2JdDrlkiCk9lrS1nA+EVcAxsGsrxHA5QR6jMD3AMaOONHvV9aufCKdbvJ7QSDICAhBCLL1RHfPEShCgkBLOhoeBONYz8EbaQNGnAn3rqhr/fxo9fCCIKR0aljVsEeZab+HETLjcby26vRV/xytvrJeEAgKAkIQgmIp0bMgCBQTQTjhzyeEjnr+kFcYmFIQMN+9qe6WqElCtm2dHYleEgSf4CRqCAIFQUAIQkFgl02DgkCxEITG2xv3NLrtP4Awy4fYrzR2lH992VnL3slGNyEI2aAmawSB9AgIQUiPkcwoYQSKgSAkyEF8OYiG7UeQ1sSMHhC2gvEmDGyHgkmEiQqYBKCSADOtjGEmMFj/3ykr6tvvykaGEIRsUJM1gkB6BIQgpMdIZpQwAsVAEM5ob/gcM1pB2CMDU3YwYyAIj3R9ALxFoJeVUluZ2CQypoJ4KpgmgREekM2HEVFGVQUZ+DX3mrUti1vezEBHuWLIFCyZLwhkgIAQhAzAkqmlh0DQCULjisYJRti+AoSvubIe83Ug417VazyezYe13uOM274yiXvHzgKpz4NJ75sqrDSiCgr2US11HbpYUUZDPAgZwSWTBQHXCAhBcA2VTCxFBAJPENprjzHYjIEQSmO/boBvUL2h77QsbunLha0bVzSGQ/FQuRrb0wngCBcydzTXtY5zMW+XKUIQMkVM5gsC7hAQguAOJ5lVoggEnSCcccuimaz40bTmY6xprm89Oe28LCcsaW/QXRIPSLc8vG3smJvOuakn3bzBvxeCkAlaMlcQcI+AEAT3WMnMEkQg6ARhcfuikwj863Sma65r9fS9wC1RUeDzW+rabkinrxCETBCSuYJAdgh4+qaQnUqyShDwDwKBJwht9bcT0SnpEPWaIOjrBqPcvh48ciwEA2+tqGudnE5fIQiZICRzBYHsEBCCkB1usqpEEAg6QTijveFZBg5KY663m+taM8lwyMr6Z7SdfjyTWjvSYgY2r6hr1amTrodcMbiGSiYKAhkhIAQhI7hkcqkhUAQE4SkGDh/RbgRurm11lWkwGvs3tta/3zDoDwDKh5MjBGE0CMtaQSC3CAhByC2eIq3IEAg6QVjcXr+KQA3pzGLA3ntZXcer6eaN5vdNTU3Gawe+eBEDVwtBGA2SslYQyA8CQhDyg7PsElAEAk8QOho+TAz9rX3k8f/bO/soucr6jn9/d/Ytb5DEgMFKKFZ5EVqpHMCK9ngEgSMvCpItBENm5u7OzCYGCAW0KqcLR8RIJZHA7sxk3hISC9kKntYUqmCkrSJiPLWHF1vepYWAkESyJvs2z6/nLoukJLv3ZWdmZ+d+7z8czv29PM/n9+zw5T73/h7V+2DJTelo/iduppO5n8jHz4pY1rhfS6jqvnQ8v9JPDm4x+KFFWxLwToACwTsrWoaQwHQXCF6/Hhgr7RMQPGQZeagnngvU9ngqlggFwlRQZ84wEKBACEOVOcfABEImEMY46auA5fQtgKqOAObWnbP77+1r7ysHBllFRwqEKsJl6FAToEAIdfk5eTcC010gOPNLFjpiIlpwm6uv+0ZvmDFnz+o17X37fPlVwZgCoQpQGZIEAFAgcBmQwAQEGkIgFO3zBZID9PBqF1vV3GxG9F4rYqmTy/lnedB6MpvM7q1WbgqEapFl3LAToEAI+wrg/Cck0AgCYfQpQjGeErG+DlVfPQYmvTwUBqLfUOBFJ5ZR/c/18eJPJx13vwAUCJWkyVgk8DYBCgSuBhJo8CcIzvTGTnX8sopeK5Cp+7sXPAaDn4uI9sZyHZVYfBQIlaDIGCRwIIGp+6FgNUhgGhBolCcIDuqritG5e1XeZ4m1vU7Q/wqCR9PRfOdkxkOBMBl69CWB8QlQIHB1kEAIniDsP8Wu9R1/Zpr0EQFanNcE6mABGFXz+Uy8eJfz4YTf8VAg+CVGexLwRoACwRsnWoWUQCM9QXhnCZPF+NUCuQhAM4BTp7rEArT3xvJ9fsdBgeCXGO1JwBsBCgRvnGgVUgKNLBDeKmkik5hptY7c7Py7qpwE4CNjTxdqX3VFKh3PZ/wkpkDwQ4u2JOCdAAWCd1a0DCGBMAiE/cuaKEaPsxA5SY062w+wRFqMYKkAH6vJdoTIPlFd5udJAgVCCP8wOeWaEKBAqAlmJpmuBMImEN5ZJ+eApZf+5KV3YwSHNo2YA34vyk2ICfTaitVXnHcQdGs6Wjjfa0wKBK+kaEcC/ghQIPjjReuQEQi7QAhS7sW3Lp4xf94hv33LV4AZPp8+PAOVRDqe+5GX/BQIXijRhgT8E6BA8M+MHiEiQIEw+WJ3lTo2qOrREPw5FLO9RBRgdW8s/yUvthQIXijRhgT8E6BA8M+MHiEiQIFQmWInMolmq7X8BSguAPAJt6gUCG6EeJ8Eqk+AAqH6jJlhGhOYzgKhq2TfqYqm8fArpJCJ5X5Yy/J05ePHqiV5AKdPlFcht2SiuS9i9J2EiS8+QXAjxPskEIwABUIwbvQKCYHpKhC6ivYSBTYCiIxbKpXl6Xiut9alTBXtzQCWuOT9jmmNXJldkn3NbXwUCG6EeJ8EghGgQAjGjV4hITBdBcLyUvwsA9mKCZ8g4KojXjhyXXd3t6llOb0IBAG2WmWsuKMj/4Lb2CgQ3AjxPgkEI0CBEIwbvUJCYLoKhK7NS+bp0IxXxrokHrRaqvqUirkgGyv9upbl9CIQANyFSPOV6cvTr7qNjQLBjRDvk0AwAhQIwbjRKyQEpqtAcMqTKtqDePO8hXEvC+VTe2KlR2tZTi8CQaFrdajpumwyO+w2NgoEN0K8TwLBCFAgBONGr5AQaHSBAMiP0rHcmUEOSQq6BLwIBH7FEJQu/UigcgQoECrHkpEakEDjCwSnnbKe3RMt/KAW5evaYHfAYK0CsybKR4FQi2owBwlMTIACgSuEBCYgMJ0Fwtg2g+tngo6dkcj7R8ojrxbswp6qLAiFJEv2eaK4BzL+p5dv5tZ9EO1OR4vf9DIWbjF4oUQbEvBPgALBPzN6hIjAtBcIJfsJKI53K5lzAIKIbIWR25v79z687orNb7j5eL2fytmno9k6XE35uwJx/80ReSAdzX3Ka3wKBK+kaEcC/gi4/7H6i0drEmgoAtNdIHQV7c8qcK+PogxDkBNgh1G81mQN333Hso2v+/AfNe1Yv/TopkjTEog4jZo6AfkjjzEGVCSZieacHg6eLgoET5hoRAK+CVAg+EZGhzARmO4CYeWmyw4ZHm67EcCVAeq2RxS/gKDfr68qFgA4DQLLj68CuzOx/Dw/PhQIfmjRlgS8E6BA8M6KliEkMN0FglOyRCH2YUusLICT672Era2y8NtLck7/Bs8XBYJnVDQkUASXBwAACuNJREFUAV8EKBB84aJx2Ag0gkBwapYq2KtE8DcKHFaPNVTFTpHyyelY6Xm/46NA8EuM9iTgjQAFgjdOtAopgUYRCE75koXYpWJZl4ydqFg/FVU8bVRjWbvw70EGRYEQhBp9SMCdAAWCOyNahJhAIwkEp4zd2z7R9PLz718r0BVTXlbBEAyyauF7mWj+waDjoUAISo5+JDAxAQoErhASmIBAowkEZ6rxfHxOi+hHYUW+ANXzpmIBqOB/LKMxmd32s572Ht8vQe4/ZgqEqaggc4aBAAVCGKrMOQYm0IgC4S0Y12xcOmufSpsxzdsVOCowJD+OIg9gRK9ri5SfWxsr7fbjOp4tBUIlKDIGCRxIgAKBq4IEQvYEYbzpjjY0iuhNAlnk2CikBVDnc8VW/4tE3wBkpzhhnE6NEbkmc3nuHv9x3D0oENwZ0YIEghCgQAhCjT6hIdDITxDcimjn7KOaLXTCkg+42e5/X1VVoPc375n19+uuWOecKFnViwKhqngZPMQEKBBCXHxO3Z1AmAWCO536sKBAqI86cBSNR4ACofFqyhlVkIAHgTCoqncbMWvWx0r/UcHUfwjVuaHzmIgx/zVR7Bmz3pi5pr1vXzXy12vMRDF6nEjkK5bi7An7Owj+MR3Nf6Ze58FxkUC9EqBAqNfKcFx1QcCDQHDGaQAMQK2L0vH1/1LpgVMgHEg0lVt6IiItjwBoA1zaOVMgVHpJMl5ICFAghKTQnGYwAql83NmDvwXAoV4jRCzrWDXDb/TESju8+kxkR4HwJh07Z89va7YWlI3ZBuA9Htn+TgSX9UbzWz3a04wESGCMAAUClwIJuBBw3eM+0N+I4KERY746LPrLUqw0MBnIyZJ9higemChGI28xLN6yOHJY/9zTjJgVUFzi5wAoEXm8N5o7cTL86UsCYSVAgRDWynPengkki/b5FrBRgbmenRxDxZMK/bfIvra/7lkRvBlQqmg7LYhPD6NAcMTBu/YeshaqZwJynC/+AAS4sDeW/55fP9qTAAmM/v3wIgEScCOwvNh5ioH5uZvdwe4L8IgCv0nH8u1B/FNFe7SXQNgEQqrYcSNEPwmdWByNx8UAF2YpDtyWDu+TwLgEKBC4OEjAIwF7s31U8xB8nzY4Ft5pDvC/org2Hcvf5TElkkV7hwDvdrNvpC2GVMk+HYp7AcwHEHGb+0Hvi16cXla4B/JmoyZeJEAC/glQIPhnRo8QE0jm7L8UC3dARlsTzwmEQs1XVeX7O+fsebKvvW/oYDGWF6MLy9J0i6he6vYfSVXco8ORS7LJ7HCg8dSJU1c+fqyJyF+J4oZAQ1KMQPA4FL3peD4TKAadSIAE/kCAAoGLgQR8EnD2xRf8/tCVEP2cKj7m0/1tc8UXFfJbFR0US59TY/otYx2vYs2CaLsA53iJbYx+POhRyV7iV9smtdE+UUfkFBHzDUAOD5jvnwE8lY7lrwroTzcSIIF3EKBA4JIggYAElq/vOL4c0c+KhRuhaAoYxnEbgOBpAHtg8KcQzPYaS6EqIh9PR/M/8epTL3bdWxa3vPL7OdcorHMB/WigcSl+pyJFHbK+mU1mXw4Ug04kQAIHJUCBwIVBApMgkMgkmmXGyIfESBKKjkmECuQqwK0yq/VvJ3tkcqDkk3Bamlm6aFZry3eh+CCAmYFCKR62xFo+YMrPFOzCnkAx6EQCJDAuAQoELg4SqAQBhSSyiXdZzeUnIXBOQKzJZaCrsrHC2pokq1CSVLFjEzD6boUVNGTznpltt628bUhE+BJiUIj0IwEXAhQIXCIkUGECiYK92hJcDOB9FQ79djjFIES+lY7lvlK1HBUMnCpG/xhWxPlkMRNkO2Z0K0XF2UL4uwEp9062+VQFp8ZQJNCwBCgQGra0nNhUEugsRk+KIJIC8GkAR1Z8LIoNzf0vJdddcV/Vj1OezNidLZimZnOREb0awKmBYikGRSRnoN/PxPL3B4pBJxIgAd8EKBB8I6MDCXgnkCza5wj0JEBu9u41saUqro/AbOiJF1+sVMxqxOkqxM9UkcsAXOjnLIv/Pxa9QQ2ezdiFjdUYI2OSAAmMT4ACgauDBKpMYPGWxS3z+mefKLDOFsHXJ5NOFJ1NC2feue7T6+r2ycHK21a2Ds/Z+0MIjobivUHmq6q/lEjka6+/vvv+vqvDdYx1EF70IYFqEKBAqAZVxiSBCQik8vE7IGLDQgQ6+qLeeC/rGcjoUdJQg7sy8fzSegbr9IeY3z/7YhHLc6fIA+bjNDsCfpCO58+t57lybCQQBgIUCGGoMudYlwRWbVk8Y1//7BTEOugZDSrYqoOR1fXeITGej89ptawTFHr92DsX/nkrXhDBjt5Y/iP+nelBAiRQDQIUCNWgypgkEBICXUV7iQFOFsB5CTHINQDoT43B13bN2fOvfe195SBB6EMCJFB5AhQIlWfKiCTQ8ATi+fh7WiOyShWdgV9AFNkH1biivD0TKz3V8NA4QRKYZgQoEKZZwThcEjgYgWTB/pnTolkE2wa0fH0pVtpdLVLJQuxSsSynvfQiAC1B8ijk3GZYz94ey/46iD99SIAEqk+AAqH6jJmBBCpOQFWlfU172/y5h1wrol8CZMb+SYzRTw5Z5uFKNRRy+hmMNI20tYjshgTugOhsH/RZKK/qiZV2VBwKA5IACVSUAAVCRXEyGAlUl8DKQuywckSOVSOLFFjvco7BTgvWOa2zdj+2pj3Yp4Ld3d3WS0c9f4wl1mqoXBB8dvIQgB+nY7nu4DHoSQIkUEsCFAi1pM1cJBCQwPIty2eX+4fOENHPAVgCIOIplOA1AdabiN6dWVr4lSefMaPlxejCMiLLAOfoafmwH9/9bJ1+CI+lo/mgLzEGTEs3EiCByRKgQJgsQfqTQA0IJDKJmVZL2TmUyXkp0P+l+IVCnzgitijWLd2jvRUmulJFuwToQkDOdrM96H3Ba1DNGSnnstENzzqtHALFoRMJkMCUEaBAmDL0TEwC/ggkvpNYYA2OnAdIJuDLgQrFM0Y1kbUL2w6WPVmyzxCVGxXmLwQS7PdhVBw0n2KGzKvZZHavv1nSmgRIoF4IBPsBqJfRcxwkEFICyZL9oijmu7yDMC4dUdlYHrau2DVvV7/Te6Brc9c8HRzqhGB1QKRDgA4YNJ2W5ZcJARHSjQTqiwAFQn3Vg6MhAc8Exg5D6obiQ84njp4d3zYsQ2WlWvrfongggD8gcJ5KPKeK3kEp316pryYCjYVOJEACFSVAgVBRnAxGArUlcFUxOndAmi6H0eshWFDb7HA2IW42I3gw05F/sNa5mY8ESKC6BCgQqsuX0UmgJgQS+fhZEcv6oELX1CQh0KNqtmXixX+oUT6mIQESqDEBCoQaA2c6EqgWAaeZkbbqMRE1NwBwPoes/KV4WmB1yOzm7T3tPf2VT8CIJEAC9UKAAqFeKsFxkEAFCXQV7W8p9POAHF6hsLsguj0dLXyqQvEYhgRIoM4JUCDUeYE4PBKYDIGuon0fBEeq4oSAcV4U4HGoruiNF5x+BrxIgARCQoACISSF5jTDScA5s6FrY8cpKOPLEDj/9z/TB4k+Ed3Uu6zwT6NfK/AiARIIFQEKhFCVm5MNK4GVmzreO2zkBC2XtwrErU3zLjEaLY8MPZpNbno5rMw4bxIIOwEKhLCvAM4/VAQSdyaOwMjQAtHITSI4/x2T/7GF8nXNrU2/+faS3CuhAsPJkgAJHEDg/wBr9BU1dQnChgAAAABJRU5ErkJggg==" parent="1" vertex="1">
                    <mxGeometry x="329.13" y="462.57000000000005" width="47.71" height="29.18" as="geometry"/>
                </mxCell>
                <mxCell id="75" value="" style="sketch=0;aspect=fixed;html=1;points=[];align=center;image;fontSize=12;image=img/lib/mscae/Docker.svg;fontColor=#000000;strokeColor=default;strokeWidth=0;fillColor=none;" parent="1" vertex="1">
                    <mxGeometry x="325" y="629.5" width="50" height="41" as="geometry"/>
                </mxCell>
                <mxCell id="84" value="" style="verticalLabelPosition=bottom;html=1;verticalAlign=top;align=center;strokeColor=none;fillColor=#000405;shape=mxgraph.azure.git_repository;fontColor=#000000;" parent="1" vertex="1">
                    <mxGeometry x="325" y="770" width="50" height="50" as="geometry"/>
                </mxCell>
                <mxCell id="32" style="edgeStyle=entityRelationEdgeStyle;html=1;startArrow=classic;startFill=1;strokeWidth=2;fontColor=#FFFFFF;labelBackgroundColor=#FFFFFF;labelBorderColor=default;shadow=0;sketch=0;" parent="1" source="2" target="8" edge="1">
                    <mxGeometry relative="1" as="geometry"/>
                </mxCell>
                <mxCell id="33" style="edgeStyle=entityRelationEdgeStyle;html=1;startArrow=classic;startFill=1;strokeWidth=2;fontColor=#FFFFFF;labelBackgroundColor=#FFFFFF;labelBorderColor=default;shadow=0;sketch=0;" parent="1" source="8" edge="1">
                    <mxGeometry relative="1" as="geometry">
                        <mxPoint x="320" y="485" as="targetPoint"/>
                    </mxGeometry>
                </mxCell>
            </root>
        </mxGraphModel>
    </diagram>
</mxfile>